<?xml version="1.0" encoding="utf-8"?>
<svg version="1.1" id="Layer_1" xmlns="http://www.w3.org/2000/svg" xmlns:xlink="http://www.w3.org/1999/xlink" 
    x="0px" y="0px" viewBox="-5 0 95 60" 
    style="enable-background:new 0 0 95 60;" xml:space="preserve"
    preserveAspectRatio="xMidYMid meet">

  <style type="text/css">
    	.st0{opacity:0.15;fill:#999999;}
  </style>

  <!-- Left Comma (Shifted Right) -->
  <path class="st0" d="M23,20c1.1-6.1,3.3-12.1,6.4-17.5c0.4-0.8,0.1-1.8-0.7-2.3c-0.5-0.3-1.1-0.3-1.6,0
    C10,10.1,2.5,23.8,1.6,35.4c-0.8,10,6,20.3,16.4,22.2c10.3,1.9,20.2-5,22.1-15.3c1.9-10.3-5-20.2-15.3-22.1C24.3,20.1,23.6,20.1,23,20Z"/>
  
  <!-- Right Comma (Shifted Right) -->
  <path class="st0" d="M69,20c1.1-6.1,3.3-12.1,6.4-17.5c0.4-0.8,0.1-1.8-0.7-2.3c-0.5-0.3-1.1-0.3-1.6,0
    C56,10.1,48.5,23.8,47.6,35.4c-0.8,10,6,20.3,16.4,22.2c10.3,1.9,20.2-5,22.1-15.3c1.9-10.3-5-20.2-15.3-22.1C67.7,20.1,68.4,20.1,69,20Z"/>
</svg>
