<?xml version="1.0" encoding="utf-8"?>
<!-- Generator: Adobe Illustrator 25.2.0, SVG Export Plug-In . SVG Version: 6.00 Build 0)  -->
<svg version="1.1" id="Layer_1" xmlns="http://www.w3.org/2000/svg" xmlns:xlink="http://www.w3.org/1999/xlink" x="0px" y="0px"
	 viewBox="0 0 85.4 58" style="enable-background:new 0 0 85.4 58;" xml:space="preserve">
<style type="text/css">
	.st0{opacity:0.15;fill:#999999;}
</style>
<path class="st0" d="M17.5,38c-1.1,6.1-3.3,12.1-6.4,17.5c-0.4,0.8-0.1,1.8,0.7,2.3c0.5,0.3,1.1,0.3,1.6,0
	c17-9.9,24.5-23.6,25.4-35.2c0.8-10-6-20.3-16.4-22.2C12.1-1.6,2.2,5.3,0.3,15.6c-1.9,10.3,5,20.2,15.3,22.1
	C16.2,37.9,16.9,37.9,17.5,38L17.5,38z"/>
<path class="st0" d="M64,38c-1.1,6.1-3.3,12.1-6.4,17.5c-0.4,0.8-0.1,1.8,0.7,2.3c0.5,0.3,1.1,0.3,1.6,0c17-9.9,24.5-23.6,25.4-35.2
	c0.8-10-6-20.3-16.4-22.2c-10.3-1.9-20.2,5-22.1,15.3c-1.9,10.3,5,20.2,15.3,22.1C62.7,37.9,63.4,37.9,64,38L64,38z"/>
</svg>
