<?xml version="1.0" encoding="utf-8"?>
<!-- Generator: Adobe Illustrator 26.0.0, SVG Export Plug-In . SVG Version: 6.00 Build 0)  -->
<svg version="1.1" xmlns="http://www.w3.org/2000/svg" xmlns:xlink="http://www.w3.org/1999/xlink" x="0px" y="0px"
	 viewBox="0 0 500 372.6" style="enable-background:new 0 0 500 372.6;" xml:space="preserve">
<style type="text/css">
	.st0{fill:#EBEBEB;}
	.st1{fill:#F5F5F5;}
	.st2{fill:#F0F0F0;}
	.st3{fill:#E0E0E0;}
	.st4{fill:#E6E6E6;}
	.st5{fill:none;stroke:#E0E0E0;stroke-width:2;stroke-linecap:round;stroke-linejoin:round;stroke-miterlimit:10;}
	.st6{fill:#EBB376;}
	.st7{fill:#263238;}
	.st8{fill:#407BFF;}
	.st9{opacity:0.2;enable-background:new    ;}
	.st10{opacity:0.3;enable-background:new    ;}
	.st11{fill:#FFFFFF;}
	.st12{fill:#D58745;}
	.st13{opacity:0.2;fill:#FFFFFF;}
	.st14{fill:#DE5753;}
	.st15{opacity:0.4;enable-background:new    ;}
	.st16{fill:#9F5B53;}
	.st17{fill:#892B29;}
	.st18{fill:#F5911F;}
	.st19{opacity:0.4;fill:#FFFFFF;enable-background:new    ;}
	.st20{fill:#EEC1BB;}
</style>
<g id="Background_Complete">
	<g>
		<rect y="327.4" class="st0" width="500" height="0.2"/>
		<rect x="416.8" y="343.5" class="st0" width="33.1" height="0.2"/>
		<rect x="322.5" y="346.3" class="st0" width="8.7" height="0.2"/>
		<rect x="396.6" y="334.3" class="st0" width="19.2" height="0.2"/>
		<rect x="52.5" y="335.9" class="st0" width="43.2" height="0.2"/>
		<rect x="104.6" y="335.9" class="st0" width="6.3" height="0.2"/>
		<rect x="131.5" y="340.2" class="st0" width="93.7" height="0.2"/>
		<path class="st0" d="M237,282.8H43.9c-3.1,0-5.7-2.6-5.7-5.7V5.7c0-3.1,2.6-5.7,5.7-5.7H237c3.1,0,5.7,2.6,5.7,5.7v271.4
			C242.7,280.3,240.2,282.8,237,282.8z M43.9,0.2c-3,0-5.5,2.4-5.5,5.5v271.4c0,3,2.4,5.5,5.5,5.5H237c3,0,5.5-2.4,5.5-5.5V5.7
			c0-3-2.4-5.5-5.5-5.5H43.9z"/>
		<path class="st0" d="M453.3,282.8H260.2c-3.1,0-5.7-2.6-5.7-5.7V5.7c0-3.1,2.6-5.7,5.7-5.7h193.1c3.1,0,5.7,2.6,5.7,5.7v271.4
			C459,280.3,456.5,282.8,453.3,282.8z M260.2,0.2c-3,0-5.5,2.4-5.5,5.5v271.4c0,3,2.4,5.5,5.5,5.5h193.1c3,0,5.5-2.4,5.5-5.5V5.7
			c0-3-2.4-5.5-5.5-5.5H260.2z"/>
	</g>
	<g>
		<g>
			<g>
				<rect x="142.7" y="143.5" class="st1" width="6.7" height="184.2"/>
			</g>
			<g>
				<rect x="169.3" y="166.9" class="st1" width="6.7" height="160.8"/>
			</g>
			<g>
				<rect x="195.7" y="190.3" class="st1" width="6.7" height="137.4"/>
			</g>
			<g>
				<rect x="222" y="174.7" class="st1" width="6.7" height="153"/>
			</g>
			<g>
				<rect x="248.4" y="166.9" class="st1" width="6.7" height="160.8"/>
			</g>
			<g>
				<rect x="274.8" y="151.3" class="st1" width="6.7" height="176.4"/>
			</g>
			<g>
				<rect x="301.1" y="159.1" class="st1" width="6.7" height="168.6"/>
			</g>
			<g>
				<rect x="327.5" y="151.3" class="st1" width="6.7" height="176.4"/>
			</g>
			<g>
				<rect x="353.9" y="135.7" class="st1" width="6.7" height="192"/>
			</g>
			<g>
				<rect x="380.2" y="120.2" class="st1" width="6.7" height="207.5"/>
			</g>
			<g>
				<rect x="406.6" y="104.6" class="st1" width="6.7" height="223.1"/>
			</g>
			<g>
				<path class="st2" d="M199,179.3c-0.4,0-0.8-0.1-1-0.4L141.7,124c-0.6-0.6-0.6-1.5,0-2.1c0.6-0.6,1.5-0.6,2.1,0l55.4,54
					l78.1-56.9c0.6-0.5,1.5-0.4,2,0.2l25.6,28.9l105.8-60.6c0.7-0.4,1.6-0.2,2,0.6c0.4,0.7,0.2,1.6-0.6,2l-106.9,61.2
					c-0.6,0.4-1.4,0.2-1.9-0.3l-25.5-28.8l-78,56.9C199.7,179.2,199.3,179.3,199,179.3z"/>
			</g>
		</g>
		<g>
			<polygon class="st3" points="192.7,326.6 143.5,132.6 145.9,122.9 143.4,122.9 143.4,67.6 136.8,67.6 136.8,122.9 134.2,122.9 
				136.7,132.6 87.5,326.6 94.3,326.6 136.8,159.1 136.8,327.6 143.4,327.6 143.4,159.1 185.8,326.6 			"/>
			<g>
				
					<ellipse transform="matrix(0.2298 -0.9732 0.9732 0.2298 -10.8147 230.2807)" class="st4" cx="140.1" cy="122" rx="38.1" ry="38.1"/>
				<circle class="st1" cx="140.1" cy="122" r="32.5"/>
				<circle class="st4" cx="140.1" cy="122" r="25.4"/>
				
					<ellipse transform="matrix(0.9239 -0.3827 0.3827 0.9239 -36.0141 62.8904)" class="st1" cx="140.1" cy="122" rx="20.9" ry="20.9"/>
				
					<ellipse transform="matrix(0.2298 -0.9732 0.9732 0.2298 -10.8146 230.2808)" class="st4" cx="140.1" cy="122" rx="14.5" ry="14.5"/>
				
					<ellipse transform="matrix(0.9239 -0.3827 0.3827 0.9239 -36.0141 62.8903)" class="st1" cx="140.1" cy="122" rx="10.4" ry="10.4"/>
				<path class="st4" d="M144.8,122c0,2.6-2.1,4.7-4.7,4.7s-4.7-2.1-4.7-4.7c0-2.6,2.1-4.7,4.7-4.7S144.8,119.4,144.8,122z"/>
			</g>
			<g>
				<polygon class="st4" points="91.2,90.6 92.2,97.5 85.1,99.9 92.2,103.6 99.4,101.1 98.1,94.3 				"/>
				<line class="st5" x1="140.1" y1="122" x2="88.8" y2="95.7"/>
			</g>
		</g>
		<path class="st2" d="M210.6,79.2c0-4.9,3.9-8.8,8.8-8.8c0.9,0,1.7,0.1,2.5,0.4c-0.1-0.9-0.2-1.8-0.2-2.7
			c0-10.3,8.4-18.7,18.7-18.7c1.2,0,2.3,0.1,3.4,0.3c2.9-4.7,8-7.8,13.9-7.8c8.9,0,16.2,7.2,16.3,16.1c0.1,0,0.2,0,0.3,0
			c8.3,0,15,6.7,15,15s-6.7,15-15,15h-55.2l0,0C214.4,87.9,210.6,84,210.6,79.2z"/>
		<path class="st2" d="M367.5,74.4c0-2.3,1.9-4.2,4.2-4.2c0.4,0,0.8,0.1,1.2,0.2c-0.1-0.4-0.1-0.9-0.1-1.3c0-5,4-9,9-9
			c0.6,0,1.1,0.1,1.7,0.2c1.4-2.3,3.9-3.8,6.7-3.8c4.3,0,7.8,3.5,7.9,7.8c0,0,0.1,0,0.1,0c4,0,7.2,3.2,7.2,7.2c0,4-3.2,7.2-7.2,7.2
			h-26.6l0,0C369.3,78.5,367.5,76.7,367.5,74.4z"/>
		<path class="st2" d="M94.7,79.7c0-1.6,1.3-2.9,2.9-2.9c0.3,0,0.6,0,0.8,0.1c0-0.3-0.1-0.6-0.1-0.9c0-3.3,2.7-6,6-6
			c0.4,0,0.8,0,1.1,0.1c0.9-1.5,2.6-2.5,4.5-2.5c2.9,0,5.2,2.3,5.3,5.2c0,0,0.1,0,0.1,0c2.7,0,4.9,2.2,4.9,4.9
			c0,2.7-2.2,4.9-4.9,4.9H97.5l0,0C96,82.5,94.7,81.2,94.7,79.7z"/>
	</g>
</g>
<g id="Shadow">
	<ellipse id="_x3C_Path_x3E__359_" class="st1" cx="250" cy="361.3" rx="193.9" ry="11.3"/>
</g>
<g id="Character_1">
	<g id="_x3C_Group_x3E__130_">
		<path class="st6" d="M138.4,170.6l6.9-3.9c0,0,2.6-4.1,3.4-4.3c0.8-0.2,9.5,0,9.5,0s-1.3,5.6-1.5,6.7c-0.1,1.1-8.4,0-8.4,0l-6.7,4
			L138.4,170.6z"/>
		<path class="st7" d="M74.5,353l-7.2-1.4c-0.3,0-0.5,0.2-0.6,0.4l-1.9,7.2c-0.1,0.5,0.2,1,0.7,1.1c0.1,0,0.1,0,0.2,0
			c2.5,0,4.4-0.2,7.6-0.2c2,0,7.9,0.2,10.6,0.2c2.7,0,3.1-2.7,2-2.9c-5-1.1-8.7-2.6-10.3-4C75.3,353.1,74.9,353,74.5,353z"/>
		<path class="st7" d="M162.4,352.8h-7.8c-0.3,0-0.5,0.2-0.6,0.4l-1.3,5.7c-0.1,0.5,0.2,1,0.7,1.1c0.1,0,0.1,0,0.2,0
			c2.5,0,4.4-0.2,7.6-0.2c2,0,7.9,0.2,10.6,0.2c2.7,0,3.1-2.7,2-2.9c-5-1.1-8.7-2.6-10.3-4C163.1,352.9,162.8,352.8,162.4,352.8z"/>
		<path class="st8" d="M88.3,220.7l33.2-8.4c7.5,16.4,35.2,83.9,41.9,140.1l-11.2,2.9c0,0-19.9-82.8-36.6-107c0,0-0.9,36.8-2.7,42.1
			c-1.5,4.4-35.7,63.3-35.7,63.3l-11.1-1.3c0,0,27.8-60.1,29.5-67.6c1.2-5.1-3.9-42.6-3.9-42.6c-0.9-3.3-2.2-17.2-2.2-17.2
			S88.5,221.4,88.3,220.7z"/>
		<path class="st9" d="M115.6,248.3c2.5,3.6,4.9,8.2,7.4,13.4c-2.3-12.9-9.4-25.5-9.4-25.5L115.6,248.3z"/>
		<path class="st10" d="M88.3,220.7l33.2-8.4c7.5,16.4,35.2,83.9,41.9,140.1l-11.2,2.9c0,0-19.9-82.8-36.6-107
			c0,0-0.9,36.8-2.7,42.1c-1.5,4.4-35.7,63.3-35.7,63.3l-11.1-1.3c0,0,27.8-60.1,29.5-67.6c1.2-5.1-3.9-42.6-3.9-42.6
			c-0.9-3.3-2.2-17.2-2.2-17.2S88.5,221.4,88.3,220.7z"/>
		<path class="st7" d="M146.1,171.2c0,0-15.1,10.2-19.1,10.8c-1.6,0.2-4.9-0.3-8.3-1c-5.1-1.1-10.5-2.6-10.5-2.6l-0.7-5.1l-0.7-5.4
			c1.2-0.4,16.9,6,19.2,7c2.3,0.9,17.5-8,17.5-8L146.1,171.2z"/>
		<polygon points="99.2,218.4 100.2,222.2 89.5,225.1 88.5,221.1 		"/>
		<polygon points="116.1,214.1 117.1,217.7 101.4,221.9 100.4,218.1 		"/>
		<polygon points="123.2,216.1 118.2,217.4 117.3,213.8 121.9,212.6 		"/>
		
			<rect x="107" y="214.9" transform="matrix(-0.9693 0.2458 -0.2458 -0.9693 270.3257 400.7278)" class="st11" width="6.4" height="4.6"/>
		<path class="st7" d="M121.9,212.6l-33.4,8.5c-1.6-4.4-3.3-8.8-4.9-13.2c-1.2-3.2-2.4-6.3-3.5-9.3c-0.3-0.8-0.6-1.5-0.9-2.3
			c-0.3-0.9-0.7-1.8-1-2.7c-0.7-1.9-1.4-3.8-2.1-5.6c-0.6-1.7-1.3-3.3-1.8-4.8c-0.3-0.8-0.6-1.5-0.9-2.3c-0.6-1.5-1.1-3-1.7-4.3
			l35.1-8.9C118.4,188,121.9,212.6,121.9,212.6z"/>
		<path class="st6" d="M84.4,175.8c3.6,1.7,10.3-1.3,10.3-1.3s2.2-2.4,0.9-3.5c-2.7,0.3-2.5-0.5-3.5-1.9c-0.6-0.8-0.9-1.8-1.1-2.8
			c-0.1-0.6-0.2-1.1-0.3-1.7l-10.5-3.8C82.6,164.6,86.3,171.9,84.4,175.8z"/>
		<path class="st9" d="M83.4,164.2c1.9,5.1,6.6,5.2,8.7,4.9c-0.6-0.8-0.9-1.8-1.1-2.8L83.4,164.2z"/>
		<g>
			<path class="st7" d="M97.1,145.1c0,0,2.7,8.3-1.2,12.3c-4,4-6.7-11.8-6.7-11.8L97.1,145.1z"/>
			<path class="st6" d="M83.9,166.4c2.7,2.8,6.5,3,9.4,1.5c1.9-1,3.5-2.7,4.2-4.8c0.1-0.3,0.2-0.6,0.3-0.9
				c1.3-5.6,0.5-14.8-5.6-17.3c-4.3-1.8-9.3,0.3-11.1,4.6c-0.5,1.2-0.7,2.6-0.6,3.9C80.9,159.6,80.8,163.3,83.9,166.4z"/>
			<path class="st7" d="M89.9,155.1c0,0.5,0.3,0.9,0.6,0.9c0.3,0,0.6-0.4,0.6-0.9c0-0.5-0.3-0.9-0.6-0.9
				C90.2,154.2,89.9,154.6,89.9,155.1z"/>
			<path class="st7" d="M95.6,155.1c0,0.5,0.3,0.9,0.6,0.9c0.3,0,0.6-0.4,0.6-0.9s-0.3-0.9-0.6-0.9
				C95.9,154.2,95.6,154.7,95.6,155.1z"/>
			<path class="st12" d="M93.8,155.4c0.6,1.5,1.4,3,2.4,4.3c-0.7,0.5-1.6,0.7-2.4,0.5L93.8,155.4z"/>
			<path class="st7" d="M97.7,152.8c-0.1,0-0.2,0-0.3,0c-0.6-0.5-1.4-0.6-2.1-0.4c-0.2,0.1-0.3,0-0.4-0.2c-0.1-0.2,0-0.3,0.2-0.4
				c0,0,0,0,0,0c0.9-0.3,1.9-0.1,2.7,0.5c0.1,0.1,0.2,0.3,0.1,0.4c0,0,0,0,0,0C97.8,152.7,97.8,152.8,97.7,152.8z"/>
			<path class="st7" d="M88.8,152.9c-0.1,0-0.1,0-0.2-0.1c-0.1-0.1-0.1-0.3,0-0.4c0,0,0,0,0,0c0.7-0.6,1.7-0.9,2.6-0.7
				c0.2,0,0.2,0.2,0.2,0.4l0,0c0,0.2-0.2,0.2-0.4,0.2l0,0c-0.7-0.1-1.5,0.1-2.1,0.6C89,152.9,88.9,152.9,88.8,152.9z"/>
			<path class="st7" d="M85.1,145.6l0.6,1.2c-2,0.8-1.5,3.1-1,4.2c1,2.3-0.1,5.9-1.8,7.4c0,0-0.1-1-0.9-0.7
				c-0.8,0.3-0.4,5.5,1.4,7.9c0,0-2.6-2.1-4.2-7.5c-1.5-5-1.9-9.2-0.9-11.2L85.1,145.6z"/>
			<path class="st6" d="M77.8,158.5c0.7,1.4,1.9,2.5,3.4,3c2,0.7,3.1-1.1,2.6-3c-0.4-1.7-1.9-4.1-4-4
				C77.8,154.7,77,156.7,77.8,158.5z"/>
			<path class="st7" d="M85,168.9c2.9,2.1,8.7,2.7,11.5-1c2.8-3.7,1.9-9.7,1.9-9.7c-0.5,2.1-1.8,3.7-1.8,3.7
				c-1.6-1.9-4.3-0.8-4.3-0.8s-1-1.3-2.3-1.4c-1.3-0.1-5,0.1-5,0.1c-1.2-0.7-1.2-4.1-1.2-4.1l-0.7,0.6
				C83.1,156.2,82.1,166.9,85,168.9z"/>
			<path class="st7" d="M92.9,147.8c0,0,7-3.4,6.2-6.8c-0.8-3.4-2.9,0.5-2.9,0.5s0.9-2.6-0.9-2.9c-1.8-0.4-1.2,1.2-2.2,2.2
				c-1,1-10.7-0.4-13.8,1.5s-0.7,8.7-0.7,8.7S84.3,144.4,92.9,147.8z"/>
			<path class="st13" d="M85,168.9c2.9,2.1,8.7,2.7,11.5-1c2.8-3.7,1.9-9.7,1.9-9.7c-0.5,2.1-1.8,3.7-1.8,3.7
				c-1.6-1.9-4.3-0.8-4.3-0.8s-1-1.3-2.3-1.4c-1.3-0.1-5,0.1-5,0.1c-1.2-0.7-1.2-4.1-1.2-4.1l-0.7,0.6
				C83.1,156.2,82.1,166.9,85,168.9z"/>
			<g>
				<path class="st7" d="M92.6,162.9c-0.6,0.8-1.5,2.3-1.5,2.3c-0.2,0-0.3-0.1-0.4-0.2c-2-0.7-2.7-1.7-2.9-2.6
					c-0.1-0.5,0-0.9,0.1-1.3c0.1-0.4,0.3-0.7,0.3-0.7c0.8,1,2.7,1.9,3.7,2.3C92.3,162.9,92.6,162.9,92.6,162.9z"/>
				<path class="st11" d="M91.9,162.7l-0.4,0.7c-1.9-0.7-3.2-1.4-3.5-2.2c0.1-0.4,0.3-0.7,0.3-0.7C89.1,161.5,90.9,162.3,91.9,162.7
					z"/>
				<path class="st14" d="M90.7,165.1c-2-0.7-2.7-1.7-2.9-2.6c0.7,0.3,1.5,0.7,2.1,1.3C90.4,164.1,90.6,164.6,90.7,165.1z"/>
			</g>
		</g>
		<g>
			<polygon class="st8" points="96,174.5 95.4,179.7 106.2,202.7 105.2,205.7 101.6,204.1 93.9,180.6 88.3,176.8 92.4,174.5 			"/>
			<polygon class="st7" points="84.7,171 91.8,173.9 92.1,169.1 97.4,170.4 97.8,177.7 92.8,175.7 90.7,180.4 81.6,174.4 			"/>
			<polygon class="st13" points="84.7,171 91.8,173.9 92.1,169.1 97.4,170.4 97.8,177.7 92.8,175.7 90.7,180.4 81.6,174.4 			"/>
		</g>
		<path class="st9" d="M78.2,193.7c-0.7-1.9-1.4-3.8-2.1-5.6c-0.6-1.7-1.3-3.3-1.8-4.8c-0.3-0.8-0.6-1.5-0.9-2.3
			c1-0.5,3.6-0.2,4.3,1C80.2,186.5,78.2,193.7,78.2,193.7z"/>
		<path class="st9" d="M90.7,198.8c0,0-0.8,5.7-7.1,9.2c-1.2-3.2-2.4-6.3-3.5-9.3c-0.3-0.8-0.6-1.5-0.9-2.3c-0.3-0.9-0.7-1.8-1-2.7
			l11.6,1.5L90.7,198.8z"/>
		<path class="st9" d="M118.7,180.9c-5.1-1.1-10.5-2.6-10.5-2.6l-0.7-5.1C107.5,173.2,116.9,174.2,118.7,180.9z"/>
		<g>
			<g>
				<g>
					<path class="st7" d="M71.7,299c-0.4,0-0.9-0.2-1.2-0.5c-0.5-0.6-0.4-1.6,0.2-2.1c16.7-13.7,16.4-35.2,16.1-55.9
						c-0.2-15.7-0.5-30.5,6.9-40.5c10.3-14.1,51.9-36.6,58.8-37.2c4.9-0.5,155.3-42.3,234.1-64.3c0.8-0.2,1.6,0.2,1.8,1
						c0.2,0.8-0.2,1.6-1,1.8c-9.3,2.6-228.5,63.8-234.7,64.4c-5.9,0.6-47.1,22.9-56.7,36c-6.8,9.3-6.6,23.6-6.3,38.7
						c0.3,20.5,0.6,43.7-17.2,58.3C72.4,298.9,72,299,71.7,299z"/>
				</g>
				<g class="st15">
					<path class="st11" d="M387.5,101.3c-1.6,0.4-9.1,2.5-20.6,5.7c-56.6,15.8-209,58.2-214.1,58.7c-5.9,0.6-47.1,22.9-56.7,36
						c-6.8,9.2-6.6,23.6-6.3,38.7c0.3,20.5,0.6,43.7-17.2,58.3c-0.3,0.2-0.6,0.3-1,0.3c-0.4,0-0.9-0.2-1.2-0.5
						c-0.5-0.6-0.4-1.6,0.2-2.1c16.7-13.7,16.4-35.2,16.1-55.9c-0.2-15.7-0.5-30.5,6.9-40.5c10.3-14.1,51.9-36.6,58.8-37.2
						c4.6-0.5,137.9-37.4,219.3-60.2c5.2-1.5,10.1-2.8,14.9-4.2c0.8-0.2,1.6,0.2,1.8,1C388.7,100.2,388.3,101.1,387.5,101.3z"/>
				</g>
			</g>
			<path class="st9" d="M387.5,101.3c-1.6,0.4-9.1,2.5-20.6,5.7c1.3-1.6,3-3.1,4.9-4.5c5.2-1.5,10.1-2.8,14.9-4.2
				c0.8-0.2,1.6,0.2,1.8,1C388.7,100.2,388.3,101.1,387.5,101.3z"/>
		</g>
		<path class="st6" d="M81.9,195.8l7.9-0.7c0,0,4.1-2.6,4.9-2.4c0.8,0.2,8.6,4,8.6,4s-3.6,4.6-4.1,5.5c-0.6,1-7.7-3.5-7.7-3.5
			l-7.8,0.8L81.9,195.8z"/>
		<path class="st7" d="M71.7,176.7c-3.6,2.6-12.9,23.3-11.9,26.6c1,3.2,29.9-3.1,29.9-3.1l-1.3-5.4H72.9l3.7-5.8
			c0,0,2.3-2.2,0.9-7.4C76.5,177.8,71.7,176.7,71.7,176.7z"/>
	</g>
</g>
<g id="Character_3">
	<g id="_x3C_Group_x3E__129_">
		<path class="st16" d="M373.2,178.8l-5.9-2.8c0,0-3-5.7-3.9-6.7c-0.9-0.9-5.1,2.6-5.1,3.3c0,0.6,3.1,6.4,3.9,6.8s3.6,0,3.6,0
			l5.6,2.7L373.2,178.8z"/>
		<path class="st16" d="M387.1,143.2l1.2-4.3c0,0,1.9-5.5,1.7-6.8c-0.2-1.3-1.4-4.4-1.4-4.4s-5.2,6.3-5.2,7.1c0,0.8,2.1,3.7,2.1,3.7
			l-1,4.7H387.1z"/>
		<path class="st8" d="M391.6,174.8c0,0-4.5-5.6-5.8-10.7c-1.3-5.2,2.7-22,2.7-22l-4.2-1.1c0,0-5,17.2-5.2,23.5s9.2,24.7,9.2,24.7
			L391.6,174.8z"/>
		<path class="st9" d="M388.9,186.4l-0.6,2.7c0,0-3.2-6.3-5.9-12.9c2.2,1.5,4.5,4,5.9,7.9C388.6,184.9,388.8,185.7,388.9,186.4z"/>
		<g>
			<path class="st8" d="M415.3,187c0,1-0.2,2.2-0.4,3.5c-0.5,2.5-1.2,5.4-2.1,8.7c-0.5,1.7-1,3.5-1.5,5.5
				c-2.2,8.7-3.4,12.1-5.1,23.2l-31.6-7.5c0,0,2.2-13.6,7.8-27.8c0.9-2.4,2-4.8,3.1-7.1c1.8-3.7,3.8-7.3,6.2-10.6
				c0,0,5.1,4.7,21.2,7.5C414.8,182.7,415.4,184.4,415.3,187z"/>
			<path class="st9" d="M411.4,183.4c0,1,3.8,5.8,3.6,7c-0.4,0.3-0.9,0.6-1.5,1c-10.7,6.2-24.8,3.1-31,1.1c0.9-2.4,3-6.8,4.1-9.1
				l7.5,1.7C394,185.1,406.3,182.3,411.4,183.4z"/>
		</g>
		<path class="st8" d="M398.5,176.8c1.1-0.4,10.6,1.9,9.9,2.1c-0.7,0.2-4.2,11-9.1,10.2S394.4,178.3,398.5,176.8z"/>
		<polygon class="st16" points="355.8,353.7 349.8,355 346.3,341.3 352.3,340 		"/>
		<path class="st7" d="M348.3,352.5h7.4c0.2,0,0.5,0.2,0.5,0.4l1.2,5.4c0.1,0.5-0.2,1-0.7,1.1c-0.1,0-0.1,0-0.2,0
			c-2.4,0-4.1-0.2-7.1-0.2c-1.8,0-7.4,0.2-10,0.2c-2.6,0-2.9-2.5-1.8-2.8c4.7-1,8.2-2.4,9.7-3.8C347.6,352.6,348,352.5,348.3,352.5z
			"/>
		<path class="st8" d="M346.3,353.6c-0.4,0-0.8-0.1-1.2-0.3c-0.2-0.2-0.3-0.5-0.3-0.8c0-0.2,0.1-0.3,0.2-0.4c0.7-0.3,2.6,0.9,2.9,1
			c0.1,0,0.1,0.1,0.1,0.1c0,0.1-0.1,0.1-0.1,0.1C347.4,353.5,346.9,353.6,346.3,353.6z M345.4,352.3c-0.1,0-0.1,0-0.2,0
			c0,0-0.1,0.1-0.1,0.2c0,0.2,0,0.4,0.2,0.5c0.7,0.3,1.5,0.3,2.2,0.1C346.9,352.8,346.2,352.5,345.4,352.3z"/>
		<path class="st8" d="M347.9,353.4L347.9,353.4c-0.7-0.3-1.9-1.7-1.8-2.3c0-0.2,0.2-0.4,0.5-0.4c0.2,0,0.4,0,0.6,0.2
			c0.7,0.6,0.9,2.3,0.9,2.4C348,353.3,348,353.4,347.9,353.4C347.9,353.4,347.9,353.4,347.9,353.4z M346.6,350.9L346.6,350.9
			c-0.3,0-0.3,0.1-0.3,0.1c-0.1,0.4,0.7,1.4,1.3,1.9c0-0.7-0.3-1.4-0.7-1.9C346.9,350.9,346.8,350.9,346.6,350.9z"/>
		<path class="st7" d="M406.5,228.7c0,0-5.1,24.5-17.1,31c-1.4,0.8-2.9,1.3-4.4,1.5c0,0-12.2,5-22.7,9.7c-6.4,2.9-12.2,5.7-14.3,7.3
			c-5.5,4.2,7.9,69.3,7.9,69.3l-9.1,0.1c0,0-19.2-57.6-15.9-72.8c3.2-15.1,37.6-38.3,37.6-38.3l5.3-14.6L406.5,228.7z"/>
		<path class="st9" d="M389.4,259.7c-1.4,0.8-2.9,1.3-4.4,1.5c0,0-12.2,5-22.7,9.7c6.8-12.4,18.8-20.5,18.8-20.5L389.4,259.7z"/>
		<polygon class="st16" points="432.2,353.7 426.3,355 422.8,341.3 428.8,340 		"/>
		<path class="st7" d="M424.8,352.5h7.4c0.2,0,0.5,0.2,0.5,0.4l1.2,5.4c0.1,0.5-0.2,1-0.7,1.1c-0.1,0-0.1,0-0.2,0
			c-2.4,0-4.1-0.2-7.1-0.2c-1.8,0-7.4,0.2-10,0.2c-2.6,0-2.9-2.5-1.8-2.8c4.7-1,8.2-2.4,9.7-3.8C424,352.6,424.4,352.5,424.8,352.5z
			"/>
		<path class="st8" d="M422.8,353.6c-0.4,0-0.8-0.1-1.2-0.3c-0.2-0.2-0.3-0.5-0.3-0.8c0-0.2,0.1-0.3,0.2-0.4c0.7-0.3,2.6,0.9,2.9,1
			c0.1,0,0.1,0.1,0.1,0.1c0,0.1-0.1,0.1-0.1,0.1C423.8,353.5,423.3,353.6,422.8,353.6z M421.9,352.3c-0.1,0-0.1,0-0.2,0
			c0,0-0.1,0.1-0.1,0.2c0,0.2,0,0.4,0.2,0.5c0.7,0.3,1.5,0.3,2.2,0.1C423.3,352.8,422.6,352.5,421.9,352.3z"/>
		<path class="st8" d="M424.3,353.4L424.3,353.4c-0.7-0.3-1.9-1.7-1.8-2.3c0-0.2,0.2-0.4,0.5-0.4c0.2,0,0.4,0,0.6,0.2
			c0.7,0.6,0.9,2.3,0.9,2.4C424.5,353.3,424.5,353.4,424.3,353.4C424.4,353.4,424.4,353.4,424.3,353.4z M423.1,350.9L423.1,350.9
			c-0.3,0-0.3,0.1-0.3,0.1c-0.1,0.4,0.7,1.4,1.3,1.9c0-0.7-0.3-1.4-0.7-1.9C423.3,350.9,423.2,350.9,423.1,350.9z"/>
		<path class="st16" d="M408.5,181.9c-1.5,1-8.4,0.6-8.4,0.6L397,186l-0.3-5.8c0,0-2.2-0.9-1.6-1.5c2,0,3.3-0.5,4.1-1.4
			c1.4-1.4,1.7-3.5,1.6-5.7c0,0,0-0.1,0-0.1l0,0l5.9-3l4.1-2.1C408.9,170.6,406.2,178.3,408.5,181.9z"/>
		<path class="st9" d="M408.7,170c-1.9,4.9-7,7.1-9.5,7.4c1.4-1.4,1.7-3.5,1.6-5.7c0,0,0-0.1,0-0.1l5.9-3
			C406.7,169.4,409,169.2,408.7,170z"/>
		<g>
			<path class="st7" d="M412.4,169.7c0,0,3.8,2,5.1-0.4c1.3-2.4-0.5-2.5,1.3-3.4c1.9-0.9,4.5-1.5,3.9-3.3c-0.6-1.8-2.5-2-0.4-4
				c2.1-1.9,2.6-4.8-0.6-5.4c-3.1-0.5-1.9-3-2.1-4c-0.2-1.1-1.9-1.7-3.8-1.3s-2.7-2.4-3.9-3.3c-1.2-0.9-2.8,0.2-3.2,1.4
				c-0.4,1.2-1.6-0.4-3.2-0.6c-1.7-0.2-1.3,1.6-1.8,3.2s-1.5,0.6-2.7,1.9C399.7,152,399.6,161.3,412.4,169.7z"/>
			<path class="st16" d="M414.1,164c-2.9,4.5-4.5,7.5-7.7,8.9c-0.4,0.2-0.9,0.4-1.3,0.5c-6.3,1.8-11.4-4.2-9.8-10.2
				c0.3-1,0.7-2.1,1.2-3.1c2.2-4.7,6.6-9.5,11.7-8.9c4.5,0.5,7.8,4.6,7.2,9.1C415.3,161.7,414.8,163,414.1,164z"/>
			<path class="st7" d="M405.3,161.1c-0.2,0.4-0.7,0.6-0.9,0.5c-0.3-0.2-0.3-0.6-0.1-1.1c0.2-0.4,0.7-0.6,0.9-0.5
				C405.5,160.2,405.5,160.6,405.3,161.1z"/>
			<path class="st7" d="M400.5,158.4c-0.2,0.4-0.7,0.6-0.9,0.5c-0.3-0.2-0.3-0.6-0.1-1.1c0.2-0.4,0.7-0.6,0.9-0.5
				C400.7,157.5,400.7,158,400.5,158.4z"/>
			<path class="st17" d="M401.9,159.4c-1.2,1-2.6,1.9-4.1,2.5c0.4,0.8,1,1.3,1.8,1.5L401.9,159.4z"/>
			<path class="st7" d="M408.2,159.9c-0.1,0-0.2,0-0.3-0.1c-0.4-0.6-1.1-1-1.8-1c-0.2,0-0.3-0.1-0.3-0.3c0-0.2,0.1-0.3,0.3-0.3
				c0,0,0,0,0,0c0.9,0,1.8,0.5,2.3,1.2c0.1,0.1,0.1,0.3-0.1,0.4c0,0,0,0,0,0C408.3,159.9,408.2,159.9,408.2,159.9z"/>
			<path class="st7" d="M400.8,166.2L400.8,166.2c1.4,0.4,2.9,0.2,4-0.7c0.1-0.1,0.1-0.2,0-0.2c-0.1-0.1-0.1-0.1-0.2,0c0,0,0,0,0,0
				c-1.1,0.8-2.5,1-3.7,0.6c-0.1,0-0.2,0-0.2,0.1c0,0,0,0,0,0C400.7,166.1,400.7,166.1,400.8,166.2
				C400.8,166.2,400.8,166.2,400.8,166.2z"/>
			<path class="st7" d="M400,154.2c0-0.1,0-0.1,0-0.2c0.1-0.1,0.2-0.2,0.4-0.1c0,0,0,0,0,0c0.8,0.4,1.5,1.2,1.6,2.1
				c0,0.2-0.1,0.3-0.2,0.3c0,0,0,0,0,0c-0.2,0-0.3-0.1-0.3-0.2l0,0c-0.2-0.7-0.6-1.3-1.3-1.6C400.1,154.4,400,154.3,400,154.2z"/>
			<path class="st7" d="M404.1,151.7c1.5,0.2,2.2,2,2.2,2s3.6,1.3,5.1,2.4c1.5,1.1,1.2,2.9,1.2,3.4c-0.1,0.5-1.2,0.9-1.2,0.9
				s-2.2,5.1-2.8,6.5l0.3,4.7c0,0,5.8-3.2,9.2-10.3c3.4-7.1-10.8-13.3-10.8-13.3L404.1,151.7z"/>
			<path class="st16" d="M413.3,171.2c-1.3,0.7-2.9,0.9-4.4,0.5c-1.9-0.6-1.8-2.6-0.4-3.8c1.3-1.1,3.8-2.2,5.3-0.9
				C415.3,168.2,414.9,170.3,413.3,171.2z"/>
		</g>
		<path class="st8" d="M408.4,178.9l-8,2.3l-3.4,4.6l0.9-5.7c0,0-0.9-1.3,0.6-3.4l-4.8,1l-2.9,4.9l5.7-1.3l0.4,5.7l3.3-3.9l2.7,4.3
			l8.1-5.1L408.4,178.9z"/>
		<path class="st9" d="M408.4,178.9l-8,2.3l-3.4,4.6l0.9-5.7c0,0-0.9-1.3,0.6-3.4l-4.8,1l-2.9,4.9l5.7-1.3l0.4,5.7l3.3-3.9l2.7,4.3
			l8.1-5.1L408.4,178.9z"/>
		<g>
			<polygon points="375,217.1 373.8,222 406.5,228.7 407,223.2 			"/>
			<path class="st11" d="M389.6,219.6c-0.3-0.4-7.5-1.9-8.2-1.4c0,0-1.4,4.9-1.2,5.4c0.2,0.5,7.3,1.5,8,1.6
				C388.9,225.4,389.9,220,389.6,219.6z M387.6,224.6c-0.5-0.1-6.4-0.9-6.6-1.3c-0.2-0.4,1-4.4,1-4.4c0.6-0.4,6.5,0.9,6.8,1.2
				C389,220.3,388.2,224.7,387.6,224.6z"/>
			<path class="st11" d="M387.9,221.3l-1.4-0.3c-0.3-0.1-0.5,0.1-0.6,0.4l0,0c-0.1,0.3,0.1,0.6,0.4,0.7l1.4,0.3
				c0.3,0.1,0.6-0.2,0.6-0.5C388.4,221.6,388.2,221.4,387.9,221.3z"/>
		</g>
		<path class="st7" d="M406.5,228.7c0,0,0.6,37-0.4,47.8c-1,10.8,25.9,69.9,25.9,69.9h-8.7c0,0-26.4-43.3-32.5-56.6
			c-6.1-13.3-10.5-45.1-10.5-45.1L406.5,228.7z"/>
		<path class="st8" d="M415.5,184.4c-1.4-3.1-22.1,1.5-24,0.9c-1.9-0.5-21.3-8.7-21.3-8.7l-1.7,4.4c0,0,17.5,10,21.3,11.6
			c3.8,1.6,19.1,0.8,23-0.9C416.6,190.1,416.2,186.2,415.5,184.4z"/>
	</g>
</g>
<g id="Arrow">
	<path class="st18" d="M411.8,105l-6.3-40l-33.1,23.4l11,4.7c-10.6,24.3-45.1,95.6-104.3,148.2C203.4,308.4,97.4,341.4,96.4,341.8
		l5.9,19.1c4.5-1.4,111.1-34.6,190.1-104.7c63-55.9,98.4-129.6,109.5-155.4L411.8,105z"/>
	<path class="st19" d="M405.8,98l-0.3-33l-33.1,23.4l11,4.7c-10.6,24.3-45.1,95.6-104.3,148.2C203.4,308.4,97.4,341.4,96.4,341.8
		l1.9,12.1c4.5-1.4,111.1-31.6,190.1-101.7c63-55.9,96.4-130.6,107.5-156.4L405.8,98z"/>
	<g>
		<path class="st7" d="M400,106.7c-0.2,0-0.3,0-0.5-0.1l-19.2-6.2c-0.8-0.3-1.2-1.1-1-1.9c0.3-0.8,1.1-1.2,1.9-1l19.2,6.2
			c0.8,0.3,1.2,1.1,1,1.9C401.2,106.3,400.6,106.7,400,106.7z"/>
	</g>
	<g class="st15">
		<path class="st11" d="M400,106.7c-0.2,0-0.3,0-0.5-0.1l-19.2-6.2c-0.8-0.3-1.2-1.1-1-1.9c0.3-0.8,1.1-1.2,1.9-1l19.2,6.2
			c0.8,0.3,1.2,1.1,1,1.9C401.2,106.3,400.6,106.7,400,106.7z"/>
	</g>
</g>
<g id="Character_2">
	<g>
		<g>
			<g>
				<path class="st7" d="M169.9,293.9c-0.8,0-1.5-0.7-1.5-1.5c0-47.7,13.9-54,16.5-54.8l44.1-30.8c0,0,0.1,0,0.1-0.1l169.4-100.5
					c0.7-0.4,1.6-0.2,2.1,0.5c0.4,0.7,0.2,1.6-0.5,2.1L230.7,209.2l-44.3,31c-0.2,0.1-0.4,0.2-0.6,0.3c-0.1,0-14.3,3.5-14.3,51.9
					C171.4,293.2,170.8,293.9,169.9,293.9z"/>
			</g>
			<g class="st15">
				<path class="st11" d="M169.9,293.9c-0.8,0-1.5-0.7-1.5-1.5c0-47.7,13.9-54,16.5-54.8l44.1-30.8c0,0,0.1,0,0.1-0.1l169.4-100.5
					c0.7-0.4,1.6-0.2,2.1,0.5c0.4,0.7,0.2,1.6-0.5,2.1L230.7,209.2l-44.3,31c-0.2,0.1-0.4,0.2-0.6,0.3c-0.1,0-14.3,3.5-14.3,51.9
					C171.4,293.2,170.8,293.9,169.9,293.9z"/>
			</g>
		</g>
		<path class="st8" d="M181.4,244.3c0,0-7.7,5-13.6,6.5c-1.8,0.5-3.3,0.6-4.5,0.2c-4.4-1.4-1.8-9.8,0.8-15.2
			c0.4-0.9,0.8-1.6,1.2-2.3l7.6,4.7c0,0-4.6,6.6-4.1,7c0.5,0.4,7.6-3.6,8-3.7C177.4,241.5,181.4,244.3,181.4,244.3z"/>
		<path class="st9" d="M181.4,244.3c0,0-7.7,5-13.6,6.5c-1.8-5.1-3-10.8-3.7-14.9c0.4-0.9,0.8-1.6,1.2-2.3l7.6,4.7
			c0,0-4.6,6.6-4.1,7c0.5,0.4,7.6-3.6,8-3.7C177.4,241.5,181.4,244.3,181.4,244.3z"/>
		<path class="st20" d="M219,215.3l4.5-4c0,0,1-2.8,1.5-3.2c0.5-0.4,8.7-1,8.7-1s0.2,4.4-0.5,5.5c-0.6,1.1-7.4,1.6-7.4,1.6l-3.6,3.5
			L219,215.3z"/>
		<path class="st20" d="M243.1,310.1c-1.3,18.6-4.7,44.9-4.7,44.9l-4.4,1c0,0-4.1-22-3.4-42.5c0.2-4.6,0.5-9.1,1.3-13.3
			c0,0-15.4-5.9-26.1-11.2c-5.1-2.5-9.1-4.9-9.9-6.5c-2.4-4.8,8.4-15.9,8.4-15.9c0.3,0.3,6.9,4.4,14.5,9.4
			c10.1,6.5,22.1,14.4,24,16.4C243.8,293.5,243.7,300.8,243.1,310.1z"/>
		<path class="st9" d="M243.1,310.1c-4.7,1.7-9.1,2.7-12.6,3.4c0.2-4.6,0.5-9.1,1.3-13.3c0,0-15.4-5.9-26.1-11.2l13-13
			c10.1,6.5,22.1,14.4,24,16.4C243.8,293.5,243.7,300.8,243.1,310.1z"/>
		<path class="st20" d="M208.5,263.5c0,0,42.7,24.5,48.5,30.1c5.8,5.5,39.3,57.3,39.3,57.3l-2.8,2.7c0,0-27.8-23.9-38.9-46.6
			l-46-22.2V263.5z"/>
		<g>
			<path class="st20" d="M176,218.2c0.1,0,0.1,0.1,0.2,0.1c1,0.5,2.2,1,3.4,1.1c3.5,0.3,5.7-0.5,7-2.2c0,0,0,0,0,0
				c1.8-2.6,1.7-6.7,0.8-11.5c-0.4-2.2-1-4.1-1.9-5.6c0,0,0-0.1,0-0.1c0-0.1-0.1-0.1-0.1-0.2c-1.2-2-2.9-3.1-5.5-3.4
				c-0.9-0.1-1.8-0.1-2.9,0.1C167.5,197.8,168,213.8,176,218.2z"/>
			<path class="st9" d="M176.3,218.3c1,0.5,2.1,0.9,3.4,1c3.5,0.3,5.7-0.6,7-2.3c-1.6,0.6-3.8,1-6.1,0.3
				C179.1,216.9,177.6,217.4,176.3,218.3z"/>
			<path class="st6" d="M175.6,226.2c-0.8,2.7,2.6,4.1,2.6,4.1c6-2,7.3-4.9,7.3-4.9c-4.6-2.9-2.6-9.9-2.6-9.9l-1,0.4l-7,0.7
				c0,0,1.6,3.8,1.8,4.7c0,0,0,0,0,0C177.6,225.7,175.6,226.2,175.6,226.2z"/>
			<path class="st7" d="M185.6,200.1c0,0,1.5,6.6-4.5,10.4c0,0-1.7,7.3-5.7,8c-5.4,0.9-11.3-6.2-10.5-14.4
				C165.8,193.5,181.3,190.4,185.6,200.1z"/>
			<path class="st6" d="M184,208.1c-0.1-1-1.2-2.7-2.8-2.2c-1.6,0.5-2,4.7,2.3,5.1C184.1,211,184.3,210.2,184,208.1z"/>
		</g>
		<path class="st7" d="M294.4,347.7l-4.6,3.5c-0.2,0.2-0.3,0.4-0.2,0.6l2.3,5c0.2,0.4,0.7,0.6,1.2,0.4c0.1,0,0.1-0.1,0.2-0.1
			c1.9-1.5,1.9-1.7,4.3-3.5c1.5-1.1,6-4.4,8-5.9c2-1.6,0.7-3.7-0.2-3.3c-4.3,2-8,3.1-10,2.9C295,347.4,294.6,347.5,294.4,347.7z"/>
		<path class="st8" d="M295.4,347.6c-0.1,0-0.1,0-0.2,0c0,0-0.1-0.1,0-0.2c0.1-0.2,0.9-2.4,1.6-2.5c0.2,0,0.3,0,0.4,0.2
			c0.2,0.2,0.3,0.5,0.2,0.8c-0.1,0.4-0.4,0.7-0.7,1C296.3,347.2,295.8,347.4,295.4,347.6z M295.6,347.2c0.7-0.2,1.3-0.7,1.6-1.4
			c0-0.2,0-0.4-0.2-0.5c-0.1-0.1-0.1-0.1-0.2-0.1c-0.1,0-0.1,0-0.2,0.1C296.2,345.9,295.8,346.5,295.6,347.2z"/>
		<path class="st8" d="M295.3,347.7c-0.1,0-0.1,0-0.1-0.1c0-0.1-1-1.5-0.8-2.4c0-0.2,0.2-0.4,0.4-0.5c0.2-0.1,0.4-0.1,0.6,0
			c0.5,0.4,0.3,2.2,0.1,2.9L295.3,347.7C295.4,347.6,295.4,347.7,295.3,347.7z M294.7,345.2c0,0.7,0.2,1.4,0.6,1.9
			c0.2-0.8,0.2-2-0.1-2.3c0,0-0.1-0.1-0.3,0l-0.1,0C294.8,345,294.7,345.1,294.7,345.2z"/>
		<path class="st7" d="M239.1,352l-5.8,0.1c-0.2,0-0.5,0.2-0.5,0.4l-1.1,5.4c-0.1,0.5,0.2,1,0.7,1c0.1,0,0.1,0,0.2,0
			c2.4-0.1,2.6-0.2,5.6-0.3c1.8,0,7.4,0,9.9,0c2.5-0.1,2.8-2.6,1.8-2.8c-4.7-0.9-8.2-2.3-9.7-3.6C239.9,352.1,239.5,352,239.1,352z"
			/>
		<path class="st8" d="M239.6,352.7c-0.1,0-0.1-0.1-0.1-0.1c0-0.1,0-0.1,0.1-0.1c0.2-0.1,2.1-1.4,2.8-1c0.2,0.1,0.3,0.2,0.3,0.4
			c0,0.3-0.1,0.6-0.3,0.8c-0.3,0.2-0.7,0.4-1.2,0.3C240.7,352.9,240.2,352.8,239.6,352.7z M240,352.5c0.7,0.2,1.5,0.2,2.2-0.2
			c0.1-0.1,0.2-0.3,0.2-0.5c0-0.1-0.1-0.2-0.1-0.2c-0.1,0-0.1,0-0.2,0C241.4,351.8,240.7,352.1,240,352.5z"/>
		<path class="st8" d="M239.6,352.7c0,0-0.1-0.1-0.1-0.1c0-0.1,0.1-1.8,0.8-2.4c0.2-0.1,0.4-0.2,0.6-0.2c0.2,0,0.4,0.1,0.5,0.4
			c0.1,0.6-1,2-1.7,2.3L239.6,352.7C239.7,352.7,239.6,352.7,239.6,352.7z M240.5,350.3c-0.4,0.6-0.7,1.2-0.7,1.9
			c0.6-0.5,1.4-1.5,1.3-1.9c0,0,0-0.1-0.2-0.1l-0.1,0C240.7,350.2,240.6,350.3,240.5,350.3z"/>
		<path class="st8" d="M207.3,256.9l-21.2,8.9c-8.8-21.8-20.7-32.2-20.7-32.2c8.5-10.2,24.1-14.8,24.1-14.8c2.2,1.7,4.1,4,5.9,6.6
			c1.7,2.6,3.3,5.6,4.6,8.6C205,245,207.3,256.9,207.3,256.9z"/>
		<path class="st7" d="M185.4,204.5c0,0,6.7-6.8,0.3-11.2c-6.4-4.5-12.7,1.5-12.7,1.5s-15.1,3.8-11.8,13.9c3.3,10,5.4,10.9,0.7,16.1
			c-4.8,5.2-9.6,12.9-4.6,17.8c5,4.8,22.1-0.3,27.2-7.8C189.5,227.2,180.2,211.4,185.4,204.5z"/>
		<path class="st7" d="M205.7,250.4l-23,7.9c0,0,5.1,25,8.8,29.2c3.7,4.2,28.4,23.6,31.9,22.1c3.5-1.5,26.6-22.1,26.6-22.1
			l-39.2-26.9L205.7,250.4z"/>
		<g>
			<polygon points="202.4,255.1 207.3,253.5 206.1,251.1 201.4,252.7 			"/>
			<polygon points="187.8,257.5 182.8,259.3 183.4,261.4 188.3,259.8 			"/>
			<polygon points="189.4,259.5 201.4,255.5 200.5,253 188.7,257.2 			"/>
		</g>
		<path class="st9" d="M200.1,234c-5.1-0.6-7.9-8.2-7.9-8.2c1.2-0.2,2.3-0.3,3.3-0.4C197.2,228,198.8,231,200.1,234z"/>
		<path class="st8" d="M189.6,218.8c5.5-0.8,17.8,3.6,18.9,3.6c1.1-0.1,13-9.4,13-9.4l3.1,2.7c0,0-12.5,12.9-15.1,13
			c-2.6,0.1-16-0.9-16-0.9s-3.3-1.2-3.9-4.1C189,220.7,189.6,218.8,189.6,218.8z"/>
	</g>
</g>
</svg>
