<?xml version="1.0" encoding="utf-8"?>
<!-- Generator: Adobe Illustrator 26.0.0, SVG Export Plug-In . SVG Version: 6.00 Build 0)  -->
<svg version="1.1" xmlns="http://www.w3.org/2000/svg" xmlns:xlink="http://www.w3.org/1999/xlink" x="0px" y="0px"
	 viewBox="0 0 500 372.1" style="enable-background:new 0 0 500 372.1;" xml:space="preserve">
<style type="text/css">
	.st0{fill:#EBEBEB;}
	.st1{fill:#F0F0F0;}
	.st2{fill:#F5F5F5;}
	.st3{fill:#FAFAFA;}
	.st4{fill:#407BFF;}
	.st5{opacity:0.2;fill:#FFFFFF;}
	.st6{opacity:0.4;fill:#FFFFFF;}
	.st7{opacity:0.7;}
	.st8{fill:#FFFFFF;}
	.st9{opacity:0.2;}
	.st10{fill:#D6791D;}
	.st11{fill:#CB7A63;}
	.st12{fill:#F5911F;}
	.st13{opacity:0.3;fill:#F5911F;}
	.st14{fill:#263238;}
	.st15{opacity:0.3;}
	.st16{fill:#B74D3C;}
	.st17{opacity:0.3;fill:#FFFFFF;}
	.st18{opacity:0.4;}
	.st19{opacity:0.3;enable-background:new    ;}
	.st20{fill:#CE7A63;}
	.st21{opacity:0.2;enable-background:new    ;}
	.st22{fill:#F7CC7F;}
	.st23{opacity:0.6;fill:#F7CC7F;}
</style>
<g id="Background_Complete">
	<rect y="327.4" class="st0" width="500" height="0.2"/>
	<g>
		<path class="st0" d="M238.4,282.8H45.3c-3.1,0-5.7-2.6-5.7-5.7V5.7c0-3.1,2.6-5.7,5.7-5.7h193.1c3.1,0,5.7,2.6,5.7,5.7v271.4
			C244.1,280.3,241.5,282.8,238.4,282.8z M45.3,0.2c-3,0-5.5,2.4-5.5,5.5v271.4c0,3,2.4,5.5,5.5,5.5h193.1c3,0,5.5-2.4,5.5-5.5V5.7
			c0-3-2.4-5.5-5.5-5.5H45.3z"/>
		<g>
			<path class="st0" d="M454.7,282.8H261.6c-3.1,0-5.7-2.6-5.7-5.7V5.7c0-3.1,2.6-5.7,5.7-5.7h193.1c3.1,0,5.7,2.6,5.7,5.7v271.4
				C460.4,280.3,457.8,282.8,454.7,282.8z M261.6,0.2c-3,0-5.5,2.4-5.5,5.5v271.4c0,3,2.4,5.5,5.5,5.5h193.1c3,0,5.5-2.4,5.5-5.5
				V5.7c0-3-2.4-5.5-5.5-5.5H261.6z"/>
		</g>
	</g>
	<rect y="327.4" class="st0" width="500" height="0.2"/>
	<rect x="416.8" y="343.5" class="st0" width="33.1" height="0.2"/>
	<rect x="322.5" y="346.3" class="st0" width="8.7" height="0.2"/>
	<rect x="396.6" y="334.3" class="st0" width="19.2" height="0.2"/>
	<rect x="52.5" y="335.9" class="st0" width="43.2" height="0.2"/>
	<rect x="131.5" y="340.2" class="st0" width="93.7" height="0.2"/>
	<g>
		<path class="st1" d="M154.4,103.7c12.3,0,46.8,5,46.8-13.5c0-15.7-16.8-14.6-16.8-14.6s0.5-13.6-14.5-15.4
			C154.4,58.4,152,73.1,152,73.1s-26.7-9.4-22.7,14.2c0,0-14.8-2.6-14.8,8C114.6,107.1,142.5,103.7,154.4,103.7z"/>
		<g>
			<path class="st2" d="M138.9,243.8c25,0.1,94.9,11.5,94.9-30.9c0-36-34.2-33.4-34.2-33.4s1-31.2-29.5-35.4
				c-31.2-4.3-36,29.5-36,29.5s-54.2-21.5-46,32.4c0,0-30.1-6-30.1,18.3C58.1,251.4,114.7,243.7,138.9,243.8z"/>
			<path class="st1" d="M232.1,247.5c-13.8,0-52.5,6.4-52.5-17.1c0-19.9,18.9-18.5,18.9-18.5s-0.5-17.3,16.3-19.6
				c17.3-2.4,19.9,16.3,19.9,16.3s30-11.9,25.4,17.9c0,0,16.6-3.3,16.6,10.1C276.8,251.7,245.5,247.5,232.1,247.5z"/>
		</g>
		<path class="st1" d="M309.1,149.2c13.8,0,52.4,5.3,52.4-14.2c0-16.6-18.9-15.4-18.9-15.4s0.5-14.4-16.3-16.3
			c-17.2-2-19.8,13.6-19.8,13.6s-29.9-9.9-25.4,14.9c0,0-16.6-2.8-16.6,8.4C264.6,152.7,295.8,149.2,309.1,149.2z"/>
		<g>
			<g>
				<g>
					<path class="st3" d="M268.1,327.3l20.1-130.5l59.8-75.5l20.4-86c0,0,49.5,47.8,50.8,49c1.4,1.3,12.3,130.2,13.8,132.2
						c1.5,2,15.7,24.5,15.7,24.5l6.6,85.9L268.1,327.3z"/>
					<polygon class="st0" points="268.1,327.3 296.8,214.6 337.4,175.9 345,224.9 355.2,169.1 366.9,188.1 364.3,122.6 366.4,101.6 
						373.2,115.5 368.5,35.3 402.9,36.1 410.1,74 419.3,84.3 433.1,216.5 448.8,241 455.4,326.9 					"/>
					<path class="st2" d="M369.4,35.7l20.5,66.3l12.2,9.7c0,0,6.4,26.9,6.4,25.2c-0.1-1.7-0.7-31.9-0.7-31.9l3.2-24.6l-8-43.9
						L369.4,35.7z"/>
				</g>
				<polygon class="st2" points="433.1,216.5 437.8,238.8 448.8,241 				"/>
			</g>
		</g>
	</g>
	<path class="st2" d="M356.1,282.5c21.9,0.1,83.2,10.1,83.2-27.1c0-31.6-30-29.3-30-29.3s0.9-27.4-25.8-31
		c-27.4-3.7-31.5,25.8-31.5,25.8s-47.5-18.8-40.3,28.4c0,0-26.4-5.3-26.4,16C285.3,289.2,334.9,282.4,356.1,282.5z"/>
</g>
<g id="Shadow">
	<rect x="104.6" y="335.9" class="st0" width="6.3" height="0.2"/>
	<ellipse id="_x3C_Path_x3E__359_" class="st2" cx="252.1" cy="360.7" rx="193.9" ry="11.3"/>
</g>
<g id="Coin">
	<g>
		<g>
			<g>
				<path class="st4" d="M403.4,40.1c0,9.7-7.8,17.5-17.5,17.5c-0.4,0-0.8,0-1.2,0c-9.1-0.6-16.3-8.2-16.3-17.5s7.2-16.9,16.3-17.4
					c0.4,0,0.8,0,1.2,0C395.5,22.6,403.4,30.5,403.4,40.1z"/>
			</g>
			<path class="st5" d="M401,40.1c0,9.3-7.2,16.9-16.3,17.5c-9.1-0.6-16.3-8.2-16.3-17.5s7.2-16.9,16.3-17.4
				C393.8,23.3,401,30.9,401,40.1z"/>
			
				<ellipse transform="matrix(0.3827 -0.9239 0.9239 0.3827 200.3816 380.1458)" class="st6" cx="384.7" cy="40.1" rx="13.1" ry="13.1"/>
		</g>
		<g class="st7">
			<path class="st8" d="M390.7,42.9c0.5,2.9-1.5,4.8-5.1,5.1l-0.1,2.4h-2.2l0.1-2.4c-2.1-0.2-4-0.8-5.3-1.7l1-2.7
				c1.3,0.8,2.9,1.4,4.4,1.5l0.1-3.7c-2.1-0.6-4.5-1.4-4.9-4c-0.5-2.9,1.5-4.8,5.2-5.1l0.1-2.4h2.2l-0.1,2.4
				c1.6,0.2,3.1,0.6,4.2,1.2l-0.9,2.7c-1-0.6-2.2-1-3.4-1.1l-0.1,3.8C387.9,39.6,390.2,40.4,390.7,42.9z M383.7,38.4l0.1-3.1
				c-1.2,0.2-1.8,0.9-1.7,1.7C382.2,37.7,382.8,38.1,383.7,38.4z M387.2,43.5c-0.1-0.6-0.7-1-1.5-1.3l-0.1,3
				C386.8,44.9,387.4,44.3,387.2,43.5z"/>
		</g>
	</g>
</g>
<g id="Metric">
	<g>
		<g>
			<rect x="239.7" y="200.8" class="st4" width="59.2" height="160"/>
			<rect x="239.7" y="200.6" class="st9" width="16.7" height="160.2"/>
		</g>
		<g>
			<rect x="180.4" y="264.8" class="st4" width="59.2" height="96"/>
			<rect x="180.4" y="264.8" class="st9" width="17.8" height="95.9"/>
		</g>
		<g>
			<rect x="121.2" y="285.1" class="st4" width="59.2" height="75.6"/>
			<rect x="121.2" y="285.1" class="st9" width="17.6" height="75.5"/>
		</g>
		<g>
			<rect x="62" y="305.5" class="st4" width="59.2" height="55.2"/>
			<rect x="62" y="305.5" class="st9" width="16.7" height="55.2"/>
		</g>
	</g>
</g>
<g id="Character">
	<path class="st10" d="M222.9,77.1c-2.8,3.4-5.7,6.7-8.6,10l-2.2,2.5l-2,2.2c-0.8,1-1.3,2.1-1.5,3.5l-0.7,6.5
		c-0.2,2.2-0.4,4.4-0.7,6.6c-0.5,4.4-1,8.8-1.6,13.1c-0.2,1.5-1.6,2.6-3.1,2.4c-1.4-0.2-2.3-1.3-2.4-2.6c-0.3-4.4-0.4-8.8-0.6-13.2
		c-0.1-2.2-0.1-4.4-0.2-6.6l-0.1-6.7c0-3.1,1.1-6.2,2.8-8.8l2.2-2.9l2-2.6c2.7-3.5,5.3-7,8-10.4c1.9-2.4,5.5-2.8,7.9-0.9
		C224.5,71.1,224.9,74.7,222.9,77.1C223,77.1,222.9,77.1,222.9,77.1z"/>
	<g>
		<path class="st11" d="M199.4,121.7l-3.7,6.2l8.4,0.9l1.5-6.3c0.2-0.7-0.3-1.5-1.1-1.6C203.2,120.6,201.1,120.5,199.4,121.7z"/>
		<path class="st11" d="M195.8,127.9l0.4,2.2c0.2,1.1,1.1,1.9,2.2,1.9l2.7,0c0.8,0,1.6-0.5,2-1.2l1.1-2L195.8,127.9z"/>
	</g>
	<g>
		<g>
			<polygon class="st12" points="198.9,117.1 207,117.4 206.4,122.2 199.6,121.7 			"/>
		</g>
		<polygon class="st13" points="198.9,117.1 207,117.4 206.4,122.2 199.6,121.7 		"/>
	</g>
	<g>
		<g>
			<path class="st14" d="M207,167.9l-1.3,2l-1-2.1l2.4-31.4c0.4-5-1.3-9.1-7.5-9.2c-5.8-0.1-9.3,3.8-9.7,8.8l-2.5,31.3l-1.4,2
				l-0.9-2.1l2.6-31.3c0.5-5.8,3-10.4,12.2-10.2c9.2,0.2,10.2,5,9.7,10.8L207,167.9z"/>
		</g>
		<g>
			<g>
				<path class="st14" d="M181.3,146.7l-1.6,0c-3.3,0-6.2,2.5-6.6,5.8l-3,22.6l10.4,0.4L181.3,146.7z"/>
				<path class="st5" d="M181.3,146.7l-1.6,0c-3.3,0-6.2,2.5-6.6,5.8l-3,22.6l10.4,0.4L181.3,146.7z"/>
			</g>
			<g>
				<g>
					<path class="st14" d="M210.7,168.1l-2.4-0.1l0.2-31.4c0-5-1.9-9.1-8.2-9.2c-5.8-0.1-9.1,3.8-9.1,8.8l-0.4,31.3l-2.3-0.1
						l0.4-31.3c0.1-5.8,2.3-10.4,11.5-10.2c9.2,0.2,10.5,5,10.5,10.8L210.7,168.1z"/>
				</g>
				<path class="st14" d="M221.7,176.7l-46.3-1.4l0.4-23.3c0-3,2.5-5.3,5.4-5.3l33.7,0.9c3.8,0.1,6.9,3.3,6.9,7.2L221.7,176.7z"/>
				<path class="st6" d="M216.6,176.5l-36.1-1.1c-2.8-0.1-5.1-2.5-5-5.4l0.4-18.1c0-3,2.5-5.3,5.4-5.3l33.7,0.9
					c3.8,0.1,6.9,3.3,6.9,7.2l-0.1,16.7C221.8,174.4,219.4,176.6,216.6,176.5z"/>
				<g class="st15">
					<path class="st8" d="M210.7,168.1l-1.2,2l-1.2-2.1l0.2-31.4c0-5-1.9-9.1-8.2-9.2c-5.8-0.1-9.1,3.8-9.1,8.8l-0.4,31.3l-1.3,2
						l-1.1-2.1l0.4-31.3c0.1-5.8,2.3-10.4,11.5-10.2c9.2,0.2,10.5,5,10.5,10.8L210.7,168.1z"/>
				</g>
				<polygon class="st14" points="191.7,155.5 187.9,155.4 187.9,153.9 191.8,154 				"/>
				<polygon class="st14" points="191.6,164.9 187.8,164.8 187.8,163.3 191.7,163.4 				"/>
				<polygon class="st14" points="211.6,156 207.7,155.9 207.7,154.5 211.6,154.6 				"/>
				<polygon class="st14" points="211.5,165.5 207.6,165.3 207.6,163.9 211.5,164 				"/>
				<polygon class="st8" points="204.2,156.6 195.9,156.4 195.9,153.3 204.2,153.5 				"/>
			</g>
		</g>
	</g>
	<g>
		<path class="st14" d="M239.9,42c0.3-0.1,0.7,0.3,0.8,0.8c0.1,0.5-0.1,0.9-0.4,1c-0.3,0.1-0.7-0.3-0.8-0.8
			C239.4,42.5,239.6,42.1,239.9,42z"/>
		<path class="st14" d="M240,42.4c0.3-0.2,0.6-0.5,0.8-0.8c-0.3,0.3-0.7,0.4-1,0.4C239.9,42.1,240,42.3,240,42.4z"/>
		<path class="st16" d="M240.6,47.3c0.8,0,1.7-0.3,2.2-0.9c-1.2-1.1-2.3-2.3-3.2-3.6L240.6,47.3z"/>
		<path class="st14" d="M237.3,41.3c0.5-0.6,1.2-0.9,1.9-0.9l0,0c0,0,0.1,0,0.1,0c0.2,0,0.3-0.1,0.3-0.3c0-0.2-0.1-0.3-0.3-0.3
			c-0.9-0.1-1.8,0.3-2.4,1c0,0.1-0.1,0.1-0.1,0.2c0,0.2,0.1,0.3,0.3,0.3C237.1,41.3,237.2,41.3,237.3,41.3z"/>
		<path class="st11" d="M234.2,70.2c-8.3,0.1-9.6-4.4-9.6-4.4c2.5-2.4,2.6-6.9,2.1-10.8c0.6,0.9,1.4,1.7,2.5,2.4
			c2,1.3,6.3-0.8,6.3-0.8c0,0,0,0.7,0.1,1.8c0.1,2.6,0.7,7.1,3.1,7.8C238.6,66.1,243.4,70.1,234.2,70.2z"/>
		<path class="st11" d="M235.6,57.1c-0.1,0.4-0.2,0.8-0.2,1.2c0,0-0.1,0-0.1,0c-1.9,0.5-4.1,0.2-6.1-1.1c-1-0.7-1.8-1.5-2.5-2.4
			c-0.1-1-0.3-2-0.5-2.9l9.1,5L235.6,57.1z"/>
		<g>
			<path class="st11" d="M241.6,50.3c-0.1,3.1-1.7,5.7-4.1,7.1l0,0c0,0,0,0,0,0c-0.6,0.4-1.3,0.7-2,0.9c0,0-0.1,0-0.1,0
				c-1.9,0.5-4.1,0.2-6.1-1.1c-1-0.7-1.8-1.5-2.5-2.4c-1.6-2.2-2.3-5.2-3.5-9.4c-0.4-1.2-0.4-2.5-0.2-3.8c0.8-4.5,5.1-7.5,9.6-6.7
				C239,36.1,241.7,44.7,241.6,50.3z"/>
			<path class="st9" d="M237,57.6c-0.6,0.4-0.9,0.5-1.5,0.7c-0.1-1.1,0-1.8-0.1-1.8c0.1-0.9,0.1-1.9,0.1-1.9
				C235.6,54.6,236.6,57.6,237,57.6z"/>
		</g>
		<path class="st14" d="M239.4,39c-0.7,1.1-2.8,2-2.7,1.7c0.4-0.9,0.3-2.6-0.8-2.2c0.3,0.7,1.2,5.8,0.8,6.4
			c-0.2,0.3-0.4,4.4-2.2,8.1c-1.4,2.9-1.4,3.8-1.4,3.8l-5.7,1.1c-2.1-0.3-4.1-3-4.3-3.3c-0.7-1.3-3-3-4.2-3.8
			c-0.5-0.4-0.9-0.9-1.1-1.6c-0.4-1.1,0.4-5,0.6-6.9c0.2-2.7,1.6-5.1,5.5-6.7c2.4-1,4.4-3.1,6.8-4c2.4-0.8,5.3-0.8,7.4,0.7
			C239.1,33.2,241.1,36.3,239.4,39z"/>
		<path class="st11" d="M236.4,42.7c1.8,0.5,2.7,3.1,2.7,4.7c0.1,1.8-1.1,3-2.7,1.7c-1.2-0.9-2-2.2-2.4-3.7
			C233.6,43.7,234.7,42.2,236.4,42.7z"/>
		<g>
			<path class="st4" d="M238.5,48.8c0,0.4-0.3,0.8-0.8,0.8s-0.8-0.3-0.8-0.8c0-0.4,0.3-0.8,0.8-0.8S238.5,48.3,238.5,48.8z"/>
			<path class="st17" d="M238.5,48.8c0,0.4-0.3,0.8-0.8,0.8s-0.8-0.3-0.8-0.8c0-0.4,0.3-0.8,0.8-0.8S238.5,48.3,238.5,48.8z"/>
		</g>
	</g>
	<path class="st10" d="M222.2,68.7c0,0,1.3-4,3.2-5.2c1.9-1.3,10.5,0,11.9,0.6c1.3,0.5,2.7,3.6,2.7,3.6L222.2,68.7z"/>
	<path class="st12" d="M241.8,67c-1.3-0.2-1.7-0.4-3.2-0.5c-4.6-0.2-9.2-0.2-13.8,0.1c-1.7,0.1-3.3,0.4-4.9,0.8
		c-3.3,0.8-5.5,3.8-5.3,7.2c0.7,9.4,3.4,14.9,3.9,21c0.8,12.3-1.1,20.9-1.5,23.8l6.3,1c11.2-0.3,18.7-2.7,24.9-5.3l0,0
		c0,0-1.6-14.8-0.1-20.2c4.3-14.6,1.5-16.9,0.7-21.1C248.1,70.3,245.3,67.6,241.8,67z"/>
	<g>
		<path class="st10" d="M243.6,66.6c2.3,0.3,4.6,0.8,6.9,1.2c2.3,0.4,4.6,0.9,6.8,1.4l-0.8-0.1c1,0,1.9,0.1,2.5,0.2
			c0.3,0,0.5,0,0.4,0.1c0,0-0.1,0.1-0.3,0.2c-0.2,0.1-0.4,0.3-0.7,0.5c-0.5,0.5-0.7,1.2-0.7,1.4c0,0.2,0.1,0.2,0.1,0
			c0-0.4,0-1.1-0.2-1.8l0.1,0.3c-1.2-3.3-2.2-6.7-3.3-10.1c-1-3.4-1.9-6.8-2.6-10.3c-0.3-1.4,0.6-2.7,2-2.9c1-0.2,2,0.3,2.6,1.1
			c1.9,3,3.5,6.2,5.1,9.3c1.6,3.2,3,6.4,4.5,9.6L266,67c0.4,1,0.8,2.1,1,3.5c0.1,0.7,0.2,1.6,0,2.7c-0.2,1.1-0.8,2.7-1.9,3.8
			c-0.6,0.6-1.2,1-1.8,1.3c-0.6,0.3-1.1,0.5-1.6,0.6c-1,0.3-1.7,0.3-2.3,0.4c-1.2,0.1-2.2,0.1-3,0.2l-0.1,0l-0.7-0.1
			c-2.3-0.2-4.6-0.5-6.9-0.8c-2.3-0.3-4.6-0.6-6.9-1c-3-0.5-5.1-3.4-4.5-6.5C237.8,68.1,240.6,66.1,243.6,66.6z"/>
	</g>
	<g>
		<g>
			<g>
				<polygon class="st4" points="284.9,45 314.9,44.1 314.5,34.7 284.5,36.7 				"/>
				<polygon class="st4" points="262.3,45.4 286.5,44.6 286.2,36.9 262,38.5 				"/>
				<polygon class="st14" points="283.3,44.8 284.9,45 284.5,36.7 283,37.1 				"/>
				<polygon class="st9" points="283.3,44.8 284.9,45 284.5,36.7 283,37.1 				"/>
				<polygon class="st14" points="284.9,45 286.5,45 286.1,36.6 284.5,36.7 				"/>
				<polygon class="st14" points="258.5,44.2 260.9,45.4 260.6,38.6 258.3,40 				"/>
				<g>
					<polygon class="st14" points="246.2,44.2 253.3,43.8 253.2,40.6 246.1,41.1 					"/>
					<polygon class="st9" points="246.2,44.2 253.3,43.8 253.2,40.6 246.1,41.1 					"/>
				</g>
				<polygon class="st14" points="252.4,44.4 260.3,44.1 260.1,39.7 252.2,40.2 				"/>
				<polygon class="st9" points="258.5,44.2 260.9,45.4 260.6,38.6 258.3,40 				"/>
				<polygon class="st14" points="261,45.4 262.3,45.4 262,38.5 260.6,38.5 				"/>
				<polygon class="st14" points="313.9,44.1 318.6,44 318.1,34.5 313.4,34.8 				"/>
				<g>
					<path class="st4" d="M316,44.8l6-0.2l0.1-0.4c1.3-3.6,1-7.5-0.7-10.8v0l-6,0.4l0.1,0.3C317,37.5,317.1,41.3,316,44.8L316,44.8z
						"/>
				</g>
				<g>
					<g class="st18">
						<path class="st8" d="M309.6,35.8l2.4-0.1l0,1l-2.5,0.1C309.5,36.4,309.6,36.1,309.6,35.8z"/>
						<path class="st8" d="M308.1,35.9c0,0.3,0,0.7,0,1l-21,1.2l-0.1-0.9L308.1,35.9z"/>
					</g>
					<g class="st18">
						<polygon class="st8" points="262.5,39 262.5,39.9 282.3,38.7 282.2,37.8 						"/>
					</g>
					<g class="st18">
						<polygon class="st8" points="316,34.1 316,35.2 320.7,34.9 320.7,33.8 						"/>
					</g>
				</g>
			</g>
			<g>
				<path class="st19" d="M321.4,43.3c0,0.4,0,0.7,0,1.1l-4.9,0.2l-0.1-1L321.4,43.3z"/>
				<path class="st19" d="M312.7,42.7c0,0.3,0,0.7,0,1L287,44.6l-0.1-0.9L312.7,42.7z"/>
				<path class="st19" d="M282,43.6c0,0.3,0,0.6,0,0.9l-19.1,0.7l0-0.8L282,43.6z"/>
			</g>
		</g>
		<g>
			<path class="st4" d="M244.6,41.2l0.1,3c0,0.5,0.5,0.9,1,0.9l2.5,0l-0.1-4.9l-2.5,0.1C245,40.2,244.6,40.7,244.6,41.2z"/>
		</g>
	</g>
	<path class="st20" d="M257.3,49.6l0.9-5.6c0-0.2,0-0.5,0-0.7l-0.3-3c0-0.4-0.3-0.8-0.7-0.9l-4.5-0.1c-0.6-0.2-1.2,0.1-1.4,0.6
		l-0.8,3.7c-0.1,0.3-0.1,0.6,0,0.8l1.3,5.1c0.1,0.4,0.5,0.8,1,0.8l2.9,0C256.5,50.5,257.1,50.2,257.3,49.6z"/>
	<g>
		<polygon class="st12" points="259.9,51.9 252.3,54.6 251,49.9 257.6,47.9 		"/>
		<polygon class="st13" points="259.9,51.9 252.3,54.6 251,49.9 257.6,47.9 		"/>
	</g>
	<path class="st9" d="M250,87.3l-5.9-11.1l5.9,1.9C250.5,80.2,250.7,82.9,250,87.3z"/>
	<g>
		<polygon class="st20" points="280.2,179.1 279,194.1 285.8,194.3 287.7,178.8 		"/>
		<g>
			<path class="st14" d="M286.9,192.2l-7.8,0.2c-0.3,0-0.5,0.2-0.6,0.5l-1.3,6.8c-0.1,0.6,0.2,1.2,0.8,1.3c0.1,0,0.1,0,0.2,0
				c2.8-0.1,5.3-0.3,8.8-0.4c4.1-0.1,3.1,0.5,7.9,0.4c2.9,0,3.4-3.6,2.2-3.7c-5.7-0.7-6.3-2.5-8.5-4.6
				C288.1,192.4,287.5,192.2,286.9,192.2z"/>
		</g>
		<g>
			<polygon class="st20" points="205.5,243.5 202.7,257.3 210.1,259.5 213.6,245.4 			"/>
			<path class="st14" d="M244.8,115.7c0,0-10.5,61.1-16.1,79c-4,12.8-14.9,54.7-14.9,54.7l-9.8-2.2c0,0-1.1-28.5,4.4-43.2
				c1.9-5,4.3-9.5,5-12.7c2.8-13.3-3-37.4-0.4-55.4c1.4-9.7,4.4-16.7,4.4-16.7L244.8,115.7z"/>
			<path class="st14" d="M228.7,194.7c-4,12.8-14.9,54.7-14.9,54.7l-9.8-2.2c0,0-1.1-28.5,4.4-43.2c1.9-5,4.3-9.5,5-12.7
				c2.8-13.3-3-37.4-0.4-55.4c1.4-9.7,4.4-16.7,4.4-16.7"/>
			<polygon class="st21" points="232,134.5 237.3,155.2 241.1,135.4 			"/>
			<path class="st14" d="M288.1,186.3l-9.6,0.3c0,0,0.7-12.6,0.7-31c0-2.8,0.4-5.6,1.1-8.1c1.4-5.6,3.6-9.8,3.6-9.8s-1,0.1-2.8,0.1
				c-5.4,0.3-39.2,2-39.8,2c-0.5-0.1-3.6,0.4-9.1-2.3c-10.2-5-10.3-18.9-10.3-18.9l26.3-3.6c0,0,0.4,0.1,6.8,0.2
				c19.2,0.3,42.8,1.1,46.9,7.7C307.7,132.2,288.1,186.3,288.1,186.3z"/>
			<g>
				<path class="st14" d="M210.5,256l-8.1,0.1c-0.3,0-0.6,0.2-0.6,0.5l-1,6.9c-0.1,0.6,0.3,1.2,0.9,1.3c0.1,0,0.2,0,0.2,0
					c2.9-0.1,5.5-0.3,9.1-0.3c4.3-0.1,3.2,0.5,8.3,0.5c3,0,3.3-3.6,2.1-3.8c-5.9-0.7-6.7-2.5-9.1-4.7
					C211.7,256.1,211.1,255.9,210.5,256z"/>
			</g>
		</g>
	</g>
	<path class="st21" d="M280.3,147.6c1.4-5.6,3.6-9.8,3.6-9.8s-1,0.1-2.8,0.1c-0.1,0-0.2-0.1-0.3-0.1l7-0.6L280.3,147.6z"/>
</g>
<g id="Sun">
	<g>
		<g>
			<circle class="st22" cx="96.5" cy="60.5" r="12.3"/>
			<circle class="st23" cx="96.5" cy="60.5" r="12.3"/>
		</g>
	</g>
	<g>
		<g>
			<g>
				<path class="st22" d="M96.6,43.6c-1,0-1.8-0.8-1.8-1.8v-8.1c0-1,0.8-1.8,1.8-1.8c1,0,1.8,0.8,1.8,1.8v8.1
					C98.4,42.8,97.6,43.6,96.6,43.6z"/>
			</g>
			<g>
				<path class="st22" d="M96.6,89c-1,0-1.8-0.8-1.8-1.8v-8.1c0-1,0.8-1.8,1.8-1.8c1,0,1.8,0.8,1.8,1.8v8.1
					C98.4,88.2,97.6,89,96.6,89z"/>
			</g>
		</g>
		<g>
			<g>
				<path class="st22" d="M83.4,49.1c-0.5,0-0.9-0.2-1.3-0.5L78.6,45c-0.7-0.7-0.7-1.9,0-2.6c0.7-0.7,1.9-0.7,2.6,0l3.5,3.5
					c0.7,0.7,0.7,1.9,0,2.6C84.3,48.9,83.8,49.1,83.4,49.1z"/>
			</g>
			<g>
				<path class="st22" d="M113,78.7c-0.5,0-0.9-0.2-1.3-0.5l-3.2-3.2c-0.7-0.7-0.7-1.9,0-2.6c0.7-0.7,1.9-0.7,2.6,0l3.2,3.2
					c0.7,0.7,0.7,1.9,0,2.6C113.9,78.5,113.5,78.7,113,78.7z"/>
			</g>
		</g>
		<g>
			<g>
				<path class="st22" d="M77.9,62.3h-8.1c-1,0-1.8-0.8-1.8-1.8c0-1,0.8-1.8,1.8-1.8h8.1c1,0,1.8,0.8,1.8,1.8
					C79.7,61.5,78.9,62.3,77.9,62.3z"/>
			</g>
			<g>
				<path class="st22" d="M123.3,62.3h-8.1c-1,0-1.8-0.8-1.8-1.8c0-1,0.8-1.8,1.8-1.8h8.1c1,0,1.8,0.8,1.8,1.8
					C125.1,61.5,124.3,62.3,123.3,62.3z"/>
			</g>
		</g>
		<g>
			<g>
				<path class="st22" d="M80.3,78.5c-0.5,0-0.9-0.2-1.3-0.5c-0.7-0.7-0.7-1.9,0-2.6l3.1-3.1c0.7-0.7,1.9-0.7,2.6,0
					c0.7,0.7,0.7,1.9,0,2.6L81.6,78C81.2,78.4,80.8,78.5,80.3,78.5z"/>
			</g>
			<g>
				<path class="st22" d="M109.8,49.1c-0.5,0-0.9-0.2-1.3-0.5c-0.7-0.7-0.7-1.9,0-2.6l3.3-3.3c0.7-0.7,1.9-0.7,2.6,0
					c0.7,0.7,0.7,1.9,0,2.6l-3.3,3.3C110.7,48.9,110.2,49.1,109.8,49.1z"/>
			</g>
		</g>
	</g>
	<g>
		<g>
			<g>
				<path class="st22" d="M96.6,43.6c-1,0-1.8-0.8-1.8-1.8v-8.1c0-1,0.8-1.8,1.8-1.8c1,0,1.8,0.8,1.8,1.8v8.1
					C98.4,42.8,97.6,43.6,96.6,43.6z"/>
			</g>
			<g>
				<path class="st22" d="M96.6,89c-1,0-1.8-0.8-1.8-1.8v-8.1c0-1,0.8-1.8,1.8-1.8c1,0,1.8,0.8,1.8,1.8v8.1
					C98.4,88.2,97.6,89,96.6,89z"/>
			</g>
		</g>
		<g>
			<g>
				<path class="st22" d="M83.4,49.1c-0.5,0-0.9-0.2-1.3-0.5L78.6,45c-0.7-0.7-0.7-1.9,0-2.6c0.7-0.7,1.9-0.7,2.6,0l3.5,3.5
					c0.7,0.7,0.7,1.9,0,2.6C84.3,48.9,83.8,49.1,83.4,49.1z"/>
			</g>
			<g>
				<path class="st22" d="M113,78.7c-0.5,0-0.9-0.2-1.3-0.5l-3.2-3.2c-0.7-0.7-0.7-1.9,0-2.6c0.7-0.7,1.9-0.7,2.6,0l3.2,3.2
					c0.7,0.7,0.7,1.9,0,2.6C113.9,78.5,113.5,78.7,113,78.7z"/>
			</g>
		</g>
		<g>
			<g>
				<path class="st22" d="M77.9,62.3h-8.1c-1,0-1.8-0.8-1.8-1.8c0-1,0.8-1.8,1.8-1.8h8.1c1,0,1.8,0.8,1.8,1.8
					C79.7,61.5,78.9,62.3,77.9,62.3z"/>
			</g>
			<g>
				<path class="st22" d="M123.3,62.3h-8.1c-1,0-1.8-0.8-1.8-1.8c0-1,0.8-1.8,1.8-1.8h8.1c1,0,1.8,0.8,1.8,1.8
					C125.1,61.5,124.3,62.3,123.3,62.3z"/>
			</g>
		</g>
		<g>
			<g>
				<path class="st22" d="M80.3,78.5c-0.5,0-0.9-0.2-1.3-0.5c-0.7-0.7-0.7-1.9,0-2.6l3.1-3.1c0.7-0.7,1.9-0.7,2.6,0
					c0.7,0.7,0.7,1.9,0,2.6L81.6,78C81.2,78.4,80.8,78.5,80.3,78.5z"/>
			</g>
			<g>
				<path class="st22" d="M109.8,49.1c-0.5,0-0.9-0.2-1.3-0.5c-0.7-0.7-0.7-1.9,0-2.6l3.3-3.3c0.7-0.7,1.9-0.7,2.6,0
					c0.7,0.7,0.7,1.9,0,2.6l-3.3,3.3C110.7,48.9,110.2,49.1,109.8,49.1z"/>
			</g>
		</g>
	</g>
</g>
</svg>
