<?xml version="1.0" encoding="utf-8"?>
<!-- Generator: Adobe Illustrator 26.0.0, SVG Export Plug-In . SVG Version: 6.00 Build 0)  -->
<svg version="1.1" id="Layer_1" xmlns="http://www.w3.org/2000/svg" xmlns:xlink="http://www.w3.org/1999/xlink" x="0px" y="0px"
	 viewBox="0 0 2000 2000" style="enable-background:new 0 0 2000 2000;" xml:space="preserve">
<style type="text/css">
	.st0{fill:#FFFFFF;}
	.st1{fill:#F7CC7F;}
	.st2{fill:#C7E6FF;}
	.st3{opacity:0.8;fill:#F0FBFF;}
	.st4{fill:#878583;}
	.st5{fill:#F47458;}
	.st6{fill:#EBD6AC;}
	.st7{fill:#0E2E35;}
	.st8{fill:#1F4752;}
	.st9{fill:#D1CFCB;}
	.st10{fill:url(#SVGID_1_);}
	.st11{fill:#C1DAE3;}
	.st12{fill:#858585;}
	.st13{fill:#7A7A7A;}
	.st14{fill:#592D24;}
	.st15{fill:#F8A492;}
	.st16{fill:#E5B05C;}
	.st17{fill:#F7A491;}
	.st18{fill:#DD513A;}
	.st19{fill:#FE875E;}
	.st20{fill:#13375B;}
	.st21{fill:#6394DB;}
	.st22{fill:#86B1F2;}
</style>
<g>
	<rect y="0" class="st0" width="2000" height="2000"/>
	<path class="st1" d="M1712.7,1880.1H295.8c-4.1,0-7.4-3.3-7.4-7.4v-0.4c0-4.1,3.3-7.4,7.4-7.4h1416.9c4.1,0,7.4,3.3,7.4,7.4v0.4
		C1720.1,1876.8,1716.8,1880.1,1712.7,1880.1z"/>
	<path class="st2" d="M340.8,1800.5c-356-279.2,16.6-564.1-57.4-914.4c-76-360.1-139.5-715.8,415.2-746.4
		c435.4-24,958.2,306.2,1073.6,761.5c169.7,670-203.4,899.2-203.4,899.2C946.1,1800.5,340.8,1800.5,340.8,1800.5z"/>
	<path class="st3" d="M734.3,416.4c-5.3-18.4-25.8-32.1-50.4-32.1c-4.5,0-8.9,0.5-13,1.3c-12.1-20.7-38.4-35.1-68.9-35.1
		c-7.9,0-15.5,1-22.6,2.7C562.9,331.6,533.1,317,499,317c-40.5,0-75.1,20.6-88.2,49.4c-9.3-4.1-19.9-6.5-31.3-6.5
		c-35.5,0-64.4,23-64.4,51.5c0,1.7,0.1,3.3,0.3,5H734.3z"/>
	<path class="st3" d="M1562.9,855.3c-7.4-25.8-36.3-45.1-70.8-45.1c-6.3,0-12.5,0.7-18.3,1.9c-17-29.2-54-49.4-96.8-49.4
		c-11.1,0-21.8,1.4-31.8,3.9c-23.1-30.6-65-51.1-112.8-51.1c-56.9,0-105.5,29-123.8,69.5c-13-5.8-28-9.1-43.9-9.1
		c-49.9,0-90.4,32.4-90.4,72.4c0,2.4,0.2,4.7,0.4,7H1562.9z"/>
	<path class="st3" d="M240.1,1322.2c4.2-14.6,20.5-25.5,40-25.5c3.6,0,7,0.4,10.3,1.1c9.6-16.5,30.5-27.9,54.7-27.9
		c6.3,0,12.3,0.8,18,2.2c13-17.3,36.7-28.8,63.7-28.8c32.2,0,59.5,16.4,69.9,39.3c7.3-3.3,15.8-5.2,24.8-5.2c28.2,0,51,18.3,51,40.9
		c0,1.3-0.1,2.7-0.2,4H240.1z"/>
	<g>
		<path class="st0" d="M961.5,1172.8H798.8c-23.5,195.5-26.8,451.3-213.1,632.2h589C980.2,1594.6,980.5,1365.2,961.5,1172.8z"/>
		<g>
			<g>
				<path class="st4" d="M966.3,1183.2H794c-3.9,0-7-3.1-7-7v-46.7h186.3v46.7C973.3,1180.1,970.2,1183.2,966.3,1183.2z"/>
				<g>
					<path class="st5" d="M735,869.5c0,0-70.2,93.6-120.2,151.1c-67.4,77.7-49.5,87.6,10.9,303c153.6-103.5,88.1-252.7,143.3-282.8
						C869.6,985.9,735,869.5,735,869.5z"/>
					<path class="st5" d="M1025.3,869.5c0,0,70.2,93.6,120.2,151.1c67.4,77.7,49.5,87.6-10.9,303
						c-153.6-103.5-88.1-252.7-143.3-282.8C890.7,985.9,1025.3,869.5,1025.3,869.5z"/>
				</g>
				<g>
					<path class="st5" d="M1071.2,795.7c0-180.4-104.3-341.5-158.2-412.7c-16.1-21.2-47.8-21.7-64.6-1
						c-55,68.2-159.4,221.9-159.4,404.9c0,74,50.7,284,77.1,337.5c6.3,12.8,19.4,21,33.7,21h164.7c14.3,0,27.3-8.2,33.7-21
						C1024.6,1070.9,1071.2,869.6,1071.2,795.7z"/>
				</g>
				<path class="st1" d="M998.2,1124.4c26.4-53.5,73.1-254.8,73.1-328.7c0-109.9-38.7-212.6-81.1-292.2
					c-33.1-17-69.5-26.5-107.7-26.5c-42.3,0-82.3,11.5-118.1,32.1c-40.2,75.4-75.3,171.7-75.3,277.7c0,74,50.7,284,77.1,337.5
					c6.3,12.8,19.4,21,33.7,21h164.7C978.8,1145.4,991.8,1137.2,998.2,1124.4z"/>
				<g>
					<circle class="st6" cx="887.5" cy="709.7" r="117.3"/>
					
						<ellipse transform="matrix(0.7071 -0.7071 0.7071 0.7071 -242.8515 830.1971)" class="st7" cx="880.7" cy="708.2" rx="117.3" ry="117.3"/>
					<path class="st8" d="M768.7,710c0-64.8,52.5-117.3,117.3-117.3c11.9,0,23.4,1.8,34.3,5.1c-12.4-4.4-25.7-6.8-39.5-6.8
						c-64.8,0-117.3,52.5-117.3,117.3c0,52.9,35,97.6,83.1,112.2C801.1,804.2,768.7,760.9,768.7,710z"/>
					<path class="st9" d="M891.1,810.4c0,4.9-4,8.9-8.9,8.9s-8.9-4-8.9-8.9c0-4.9,4-8.9,8.9-8.9S891.1,805.6,891.1,810.4z"/>
					<path class="st9" d="M890.6,609c0,4.9-4,8.9-8.9,8.9s-8.9-4-8.9-8.9s4-8.9,8.9-8.9S890.6,604.1,890.6,609z"/>
					
						<ellipse transform="matrix(0.2298 -0.9732 0.9732 0.2298 112.0022 1426.8813)" class="st9" cx="957.5" cy="642.7" rx="8.9" ry="8.9"/>
					<path class="st9" d="M819.1,781.8c0,4.9-4,8.9-8.9,8.9s-8.9-4-8.9-8.9s4-8.9,8.9-8.9S819.1,776.9,819.1,781.8z"/>
					<path class="st9" d="M966.3,777.9c0,4.9-4,8.9-8.9,8.9c-4.9,0-8.9-4-8.9-8.9s4-8.9,8.9-8.9C962.4,769,966.3,773,966.3,777.9z"
						/>
					<path class="st9" d="M815.5,641.3c0,4.9-4,8.9-8.9,8.9s-8.9-4-8.9-8.9s4-8.9,8.9-8.9S815.5,636.4,815.5,641.3z"/>
					
						<ellipse transform="matrix(0.7071 -0.7071 0.7071 0.7071 -213.9356 903.5001)" class="st9" cx="983.7" cy="710" rx="8.9" ry="8.9"/>
					
						<ellipse transform="matrix(2.628920e-02 -0.9997 0.9997 2.628920e-02 48.9926 1470.2843)" class="st9" cx="779.2" cy="710" rx="8.9" ry="8.9"/>
					<linearGradient id="SVGID_1_" gradientUnits="userSpaceOnUse" x1="794.645" y1="708.2461" x2="966.7764" y2="708.2461">
						<stop  offset="0" style="stop-color:#1F90F2"/>
						<stop  offset="1" style="stop-color:#A3D6FF"/>
					</linearGradient>
					<circle class="st10" cx="880.7" cy="708.2" r="86.1"/>
					<path class="st11" d="M804.5,718.9c0-47.5,38.5-86.1,86.1-86.1c22.3,0,42.6,8.5,57.8,22.3c-15.8-20.1-40.2-32.9-67.7-32.9
						c-47.5,0-86.1,38.5-86.1,86.1c0,25.3,10.9,48,28.2,63.7C811.4,757.3,804.5,738.9,804.5,718.9z"/>
					<g>
						<path class="st4" d="M889.6,809.1c0,4.9-4,8.9-8.9,8.9s-8.9-4-8.9-8.9s4-8.9,8.9-8.9S889.6,804.2,889.6,809.1z"/>
						<path class="st12" d="M880.7,814c-2.7,0-4.9-2.2-4.9-4.9c0-2.7,2.2-4.9,4.9-4.9c2.7,0,4.9,2.2,4.9,4.9
							C885.6,811.8,883.4,814,880.7,814z"/>
						<path class="st4" d="M889,607.6c0,4.9-4,8.9-8.9,8.9s-8.9-4-8.9-8.9c0-4.9,4-8.9,8.9-8.9S889,602.8,889,607.6z"/>
						<path class="st12" d="M880.1,612.6c-2.7,0-4.9-2.2-4.9-4.9c0-2.7,2.2-4.9,4.9-4.9c2.7,0,4.9,2.2,4.9,4.9
							C885.1,610.4,882.9,612.6,880.1,612.6z"/>
						<path class="st4" d="M964.8,641.3c0,4.9-4,8.9-8.9,8.9s-8.9-4-8.9-8.9s4-8.9,8.9-8.9S964.8,636.4,964.8,641.3z"/>
						<path class="st12" d="M955.9,646.2c-2.7,0-4.9-2.2-4.9-4.9c0-2.7,2.2-4.9,4.9-4.9c2.7,0,4.9,2.2,4.9,4.9
							C960.8,644,958.6,646.2,955.9,646.2z"/>
						<path class="st4" d="M817.5,780.4c0,4.9-4,8.9-8.9,8.9s-8.9-4-8.9-8.9c0-4.9,4-8.9,8.9-8.9S817.5,775.5,817.5,780.4z"/>
						<path class="st12" d="M808.6,785.4c-2.7,0-4.9-2.2-4.9-4.9c0-2.7,2.2-4.9,4.9-4.9c2.7,0,4.9,2.2,4.9,4.9
							C813.6,783.1,811.4,785.4,808.6,785.4z"/>
						
							<ellipse transform="matrix(0.1602 -0.9871 0.9871 0.1602 36.2832 1595.6915)" class="st4" cx="955.9" cy="776.5" rx="8.9" ry="8.9"/>
						<path class="st12" d="M955.9,781.4c-2.7,0-4.9-2.2-4.9-4.9c0-2.7,2.2-4.9,4.9-4.9c2.7,0,4.9,2.2,4.9,4.9
							C960.8,779.2,958.6,781.4,955.9,781.4z"/>
						<circle class="st4" cx="805.1" cy="639.9" r="8.9"/>
						<path class="st12" d="M805.1,644.8c-2.7,0-4.9-2.2-4.9-4.9c0-2.7,2.2-4.9,4.9-4.9s4.9,2.2,4.9,4.9
							C810,642.6,807.8,644.8,805.1,644.8z"/>
						<path class="st4" d="M990.9,708.6c0,4.9-4,8.9-8.9,8.9c-4.9,0-8.9-4-8.9-8.9s4-8.9,8.9-8.9C987,699.8,990.9,703.7,990.9,708.6
							z"/>
						<path class="st12" d="M982.1,713.5c-2.7,0-4.9-2.2-4.9-4.9c0-2.7,2.2-4.9,4.9-4.9c2.7,0,4.9,2.2,4.9,4.9
							C987,711.3,984.8,713.5,982.1,713.5z"/>
						<path class="st4" d="M786.5,708.6c0,4.9-4,8.9-8.9,8.9c-4.9,0-8.9-4-8.9-8.9s4-8.9,8.9-8.9
							C782.5,699.8,786.5,703.7,786.5,708.6z"/>
						<path class="st12" d="M777.6,713.5c-2.7,0-4.9-2.2-4.9-4.9c0-2.7,2.2-4.9,4.9-4.9s4.9,2.2,4.9,4.9
							C782.6,711.3,780.4,713.5,777.6,713.5z"/>
					</g>
					<path class="st13" d="M934.4,711.2c-9.7,37.5-48,60.1-85.6,50.4c-11.6-3-21.7-8.7-29.9-16.3c9.4,16.2,25,28.8,44.5,33.8
						c38.7,10,78.2-13.2,88.2-51.9c8.2-31.7-5.9-63.8-32.5-80C934,664.2,940.4,687.9,934.4,711.2z"/>
				</g>
			</g>
			<path class="st5" d="M904.6,1117.1c0,114-11.3,187.6-24.4,206.5c-13.6-19.6-24.4-92.4-24.4-206.5s24.4-206.5,24.4-206.5
				S904.6,1003.1,904.6,1117.1z"/>
			<path class="st14" d="M713,826.2c0-190.6,112-350.6,171-421.7c0.1-0.1,0.1-0.1,0.2-0.2c5.5-6.6-1.5-16-9.6-12.9
				c-6.3,2.4-12.1,6.4-16.7,12c-55,66.2-159.4,215.3-159.4,393c0,70.7,45.5,245.7,72.2,301.1C742.6,1009.7,713,886.5,713,826.2z"/>
		</g>
		<path class="st0" d="M1615.2,1805l144.3-146.7c-25.5-28.9-73.6-108.6-163.6-95.6c-83.3,12-116.8,67.8-116.8,143.2
			c0,4.9,0.2,9.7,0.6,14.4c-1.1,0-2.1-0.1-3.2-0.1c-10.4,0-20.5,2-29.8,5.7c-14.3-47.8-53.2-82-98.9-82c-53,0-96.7,45.9-103.8,105.5
			c-6.3-2.1-12.8-3.2-19.7-3.2c-32.1,0-59.3,24.7-68.3,58.8H1615.2z"/>
		<path class="st0" d="M548.8,1722.6c-30.1,0-56.3,19.5-69.8,48.3c-10.4-13.2-25.3-21.5-41.8-21.5c-14.5,0-27.8,6.4-37.8,16.9
			c-8.1-58.2-51.3-102.6-103.4-102.6c-8.6,0-16.9,1.2-24.8,3.5c0-1.2,0-2.3,0-3.5c0-83-57.6-150.4-128.6-150.4
			c-3.4,0-6.7,0.2-10.1,0.5V1805h495.5C623.4,1758.6,589.7,1722.6,548.8,1722.6z"/>
	</g>
	<g>
		<g>
			<path class="st5" d="M1563.1,380h-262.9c-13.9,0-25.1,11.3-25.1,25.2v166.5c0,13.9,11.3,25.2,25.1,25.2h177.4
				c12.8,17.9,36,50.1,38.1,50.1c1.9,0-1.8-30.3-4.4-50.1h51.8c13.9,0,25.1-11.3,25.1-25.2V405.3C1588.2,391.3,1577,380,1563.1,380z
				"/>
			<path class="st0" d="M1304.3,465.6h65.5h0h62.3c0.4,0,0.8,0.3,0.8,0.8v9.9c0,0.4-0.3,0.8-0.8,0.8h-62.3h-3.2h-62.3
				c-0.4,0-0.8-0.3-0.8-0.8v-9.9C1303.5,466,1303.9,465.6,1304.3,465.6z"/>
			<path class="st0" d="M1558.6,477h-106.7c-0.4,0-0.7-0.3-0.7-0.7v-10c0-0.4,0.3-0.7,0.7-0.7h106.7c0.4,0,0.7,0.3,0.7,0.7v10
				C1559.3,476.7,1559,477,1558.6,477z"/>
			<path class="st0" d="M1559,439.8h-142.2c-0.4,0-0.7-0.3-0.7-0.7v-10c0-0.4,0.3-0.7,0.7-0.7H1559c0.4,0,0.7,0.3,0.7,0.7v10
				C1559.8,439.5,1559.4,439.8,1559,439.8z"/>
			<path class="st0" d="M1391.1,439.8h-86.9c-0.4,0-0.7-0.3-0.7-0.7v-10c0-0.4,0.3-0.7,0.7-0.7h86.9c0.4,0,0.7,0.3,0.7,0.7v10
				C1391.8,439.5,1391.5,439.8,1391.1,439.8z"/>
			<polygon class="st0" points="1559.8,550 1303.5,550 1303.5,550 1303.5,538.6 1559.8,538.6 			"/>
			<rect x="1303.5" y="502.5" class="st0" width="121.9" height="11.4"/>
			<rect x="1437.4" y="502.5" class="st0" width="121.9" height="11.4"/>
		</g>
		<path class="st15" d="M1663.6,1065.4c-1.2,4.1-1.9,5.5-3.4,8.3c-9.9,17.9-32.7,43.5-32.7,43.5l-17.7-39.9c0,0,2.9-12.5,7.9-30.4
			C1634.7,1051.4,1651,1054,1663.6,1065.4z"/>
		<path class="st16" d="M1562.2,1030.8c0,0,98.7,42.5,101.9,41.7c2.1-0.5,40.5-64.8,40.9-125.3c0.2-27.9-28.8-61.5-61.2-54.9
			c-16.3,3.3-16,7.9-40.2,42.9C1579.5,970.2,1562.2,1030.8,1562.2,1030.8z"/>
		<path class="st17" d="M1477.9,1792.8c0,0,2.3,38.8,2.4,38.8c0.9,4.9,4.2,17.1,4.2,21.6c0,16.8-79.8-14.3-61.9-21.7
			c1.6-0.7,10.1-5.8,10.6-11.5c0.8-8.8,2.9-26.6,2.9-26.6L1477.9,1792.8z"/>
		<path class="st18" d="M1420,1830.1c0,0,19.1,5.7,28.8,7.2c9.8,1.4,22.6-10.7,29.6-7.4c7.6,3.6,7.3,36,7.3,36s-102.3,9.2-131-0.3
			C1343.3,1861.7,1381,1843.4,1420,1830.1z"/>
		<path class="st17" d="M1641.2,1792.8c0,0,2.3,38.8,2.4,38.8c0.9,4.9,4.2,17.1,4.2,21.6c0,16.8-79.8-14.3-61.9-21.7
			c1.6-0.7,12.6-9.6,13.1-15.3c0.8-8.8,0.4-22.8,0.4-22.8L1641.2,1792.8z"/>
		<path class="st18" d="M1586.2,1830.1c0,0,19.1,5.7,28.8,7.2c9.8,1.4,22.6-10.7,29.6-7.4c7.6,3.6,7.9,36,7.9,36
			s-102.8,10.7-131.7-0.3C1509.6,1861.2,1547.2,1843.4,1586.2,1830.1z"/>
		<g>
			<path class="st17" d="M1616.8,1086.9l-70.3-98.5c-0.3-0.9-0.9-2.6-1.9-5.3c-3.5-9.8-10.9-30.1-17.3-50.3l-0.1-0.2
				c-2-7.1-6.3-19.4-10.4-31.3c-4.6-13.3-10.3-29.7-10.5-32.5c0.2-0.5,0.5-1.3,0.9-2.5c2.6-6.7,6.1-22.6,7.3-29.5
				c0.8-4.4,1.6-15.1-3.7-15.1c-8.2,0-4.3,10.7-8.1,17.4c-1.4-4.5-4.2-13.3-5.7-22.3l-1.4-20.9c-0.3-1.6,1.4-13.1-4.4-13.1l-0.3,0
				c-5.2,0.4-5.1,12.7-7.2,33.4c-0.7-2.4-1.4-5.3-1.9-7.9c0.1-1.4-1-7.7-1.8-11c1-5.8,0.4-14.9-5.7-14.1c-3.1,0.4-2.8,13.2-2.8,13.2
				c0,1.7,0.2,15.2,0.1,17.9c-0.6-4.5-3.1-23.8-7.9-23.8c-4,0-4.3,5.2-4.2,9.3c0,2.4,2.6,23.3,2.7,25.7c-1.9-3.2-4.1-21.6-6-21.6
				c-7.8,0-5,26.2-2.1,33c0.3,0.7,0.6,2.1,0.9,3.6c1,4.7,2.6,12.5,6.7,19.5c4.9,8.4,11.7,21.7,12.7,23.8c0.8,4.2,3.1,19.2,6.1,38
				c1.3,8.1,2.7,16.9,4.1,26.1l0.1,0c0.3,2,1.7,8.3,7.3,32c7.6,32.4,8.4,33.8,8.7,34.4c3.3,5.8,79.1,108.8,82.3,113.1l1.9,2.6
				L1616.8,1086.9z"/>
			<path class="st5" d="M1486,857.2c0,0,5.7-14.6,15.9-14.6c0,0-5.7-2-10.5,1.8C1486.5,848.3,1486,857.2,1486,857.2z"/>
		</g>
		<g>
			<path class="st17" d="M1633.8,829l9,57.2c0,0-34.5,27.7-54.6,21.8c-16.9-4.9-5.3-26.9-5.3-26.9s9-30.5,6.2-46.6
				C1586.4,818.6,1633.8,829,1633.8,829z"/>
			<path class="st19" d="M1627.3,846.3c-8.6,4.1-25.7,9.6-39,11c1.3-8,2-16.5,0.9-22.7c-1.3-7.4,8.1-9.1,18.6-8.9
				c13.7,1.2,26,3.3,26,3.3l1.7,11C1632.9,842.8,1630.1,845,1627.3,846.3z"/>
			<path class="st17" d="M1677.3,763c1.4,0-13.6,63.9-36.9,74.9c-23.3,11-58,5.3-64.5-12c-7.2-19,19.1-84.3,51.8-92.5
				C1660.4,725.2,1677.3,763,1677.3,763z"/>
			<path class="st20" d="M1650.3,704.3c18.6,10.7,27.1,26.6,30,33.2c8.7,4.1,19.3,13.1,24.4,37.3c6.2,29.7-15.9,52.6-39.4,59.5
				c-23.5,6.9-27.1,22.4-27.1,22.4l-2.7-16.7c0,0,5.2-14.6,13.1-21.9c7.9-7.3-3.7-17.9-4.7-26.6c-0.8-6.7,4.1-19.6,3.1-30.6
				c0,0-13.1-19.8-25.9-24.7C1599,727.8,1626.4,690.5,1650.3,704.3z"/>
			<path class="st17" d="M1640.4,802.5c-3,7.4-1.8,14.7,2.8,16.4c4.6,1.7,10.8-3,13.8-10.4c3-7.4,1.8-14.7-2.8-16.4
				C1649.6,790.5,1643.5,795.2,1640.4,802.5z"/>
		</g>
		<path class="st15" d="M1553.6,1088.4l-135.6-22.1c0,0,15.4-38.8,20.9-38.8s102.5,42.3,102.5,42.3l7.7,15.5L1553.6,1088.4z"/>
		<path class="st21" d="M1623.1,1181.4c0,0,13.5,65.4,8,115c-5.5,49.6-5.9,225.7-5.9,225.7l21,281.8l-49.9,1.1
			c0,0-59.2-281.6-58.1-274.4c1.1,7.2-19.8-198.3-19.8-198.3l70.5-157L1623.1,1181.4z"/>
		<path class="st22" d="M1609.9,1178.3c0,0,8.8,58.9-2.2,84.7c-11,25.8-94.5,279.2-95.6,299.8c-1.1,20.7-28.9,249-28.9,249l-58-1.6
			l-12.6-253.8l26.3-319l25.5-80.7L1609.9,1178.3z"/>
		<path class="st17" d="M1642.8,886.3c0,0-14.3,9.4-27.7,8.3c-13.3-1.1-32.2-13.4-32.2-13.4l2.6-8.9c0,0,34.5-5,35.4-4.5
			C1621.8,868.3,1642.8,886.3,1642.8,886.3z"/>
		<path class="st15" d="M1490.3,1025.6c0,0-51.3,48.4-74.4,40.1s-32.7-36.5,23.8-77.8C1490.2,950.9,1490.3,1025.6,1490.3,1025.6z"/>
		<path class="st1" d="M1455.5,1085.3c7.6-41.4,62.8-170.4,67.2-194.2c2.1-11.6,31.9-11.8,60.3-10.3c30,1.6,59.7,5.4,59.7,5.4
			s26.5,4.4,38.2,15.3c11.7,10.9,14.8,41.2-2,98.6c-13.2,45.3-29.7,70.2-37.8,103.2c-1.6,11.1-3.1,22-4.9,34.8
			c-3,49.4,0,114.6,0,114.6s-144.4,30-198.4-15.5C1437.9,1237.2,1447.7,1127.8,1455.5,1085.3z"/>
		<path class="st16" d="M1418.7,996.2c0,0,56.7,46.8,60,46.8c2.1,0,80.9-57.9,99-105.5c10-26.3-11-55.7-35.1-55.6
			c-16.7,0.1-24.1,4.4-57.2,32.3C1452.4,942,1418.7,996.2,1418.7,996.2z"/>
		<path class="st0" d="M1581.9,804.9l21.2,9.6c0,0-4.1,7.8-13.6,3.9C1578,813.6,1581.9,804.9,1581.9,804.9z"/>
	</g>
</g>
</svg>
